{"glyphs":{"0":{"ha":643,"x_min":0,"x_max":0,"o":"m 606 723 b 36 723 604 1065 38 1065 b 36 491 36 654 36 577 b 36 260 36 405 36 329 b 606 260 38 -82 604 -82 b 606 491 606 329 606 406 b 606 723 606 576 606 654 z m 596 260 b 46 260 594 -69 48 -69 b 46 491 46 345 46 423 b 46 722 46 560 46 637 b 596 722 48 1051 594 1051 b 596 491 596 637 596 560 b 596 260 596 422 596 345 z m 242 722 b 242 261 240 687 242 261 b 400 260 243 190 399 189 b 400 722 402 295 400 721 b 242 722 400 793 243 793 z m 252 261 l 252 722 b 390 722 253 779 390 779 l 390 260 b 252 261 389 203 253 203 z "},"1":{"ha":406,"x_min":0,"x_max":0,"o":"m 363 982 l 40 896 b 36 891 38 895 36 893 l 36 685 b 43 680 36 681 40 679 l 153 709 l 153 5 b 158 0 153 2 155 0 l 364 0 b 369 5 367 0 369 2 l 369 977 b 363 982 369 981 366 983 z m 359 10 l 163 10 l 163 716 b 157 721 163 719 160 722 l 46 691 l 46 887 l 359 971 z "},"2":{"ha":644,"x_min":0,"x_max":0,"o":"m 603 216 l 316 216 b 540 391 396 272 477 308 b 608 608 583 448 608 516 b 608 722 608 646 608 684 l 608 724 b 324 982 606 878 470 981 b 36 724 177 983 38 879 l 36 653 b 41 648 36 651 38 648 l 247 648 b 252 653 250 648 252 651 l 252 654 b 252 721 252 676 252 699 b 322 766 252 752 297 765 b 392 721 347 765 392 752 b 392 608 393 684 392 646 b 251 431 392 514 322 475 b 40 138 134 359 40 289 l 40 5 b 45 0 40 2 43 0 l 603 0 b 608 5 606 0 608 2 l 608 211 b 603 216 608 214 606 216 z m 50 10 l 50 138 b 256 423 50 285 142 353 b 402 608 331 469 402 509 b 402 721 402 646 403 684 b 322 776 402 759 353 775 l 322 776 b 242 721 291 775 242 759 b 242 658 242 700 242 679 l 46 658 l 46 724 b 324 972 48 873 183 973 b 598 724 464 971 596 872 l 598 722 b 598 608 598 684 598 646 b 532 398 598 518 574 452 b 297 216 463 307 380 277 b 300 206 293 213 295 206 l 598 206 l 598 10 z "},"3":{"ha":626,"x_min":0,"x_max":0,"o":"m 525 491 b 590 673 566 543 588 607 b 37 821 601 1017 155 1086 b 39 815 35 819 36 816 l 224 717 b 231 722 228 715 232 718 b 374 685 232 771 374 803 b 302 603 374 638 350 603 l 229 603 b 224 598 226 603 224 601 l 224 384 b 229 379 224 381 226 379 l 302 379 b 374 298 350 379 374 343 b 231 261 374 182 232 209 b 224 265 231 264 227 267 l 39 168 b 37 161 36 166 35 163 b 590 293 150 -93 584 -44 b 525 491 591 364 570 435 z m 48 161 l 222 253 b 384 298 235 192 384 175 b 302 389 384 349 356 389 l 234 389 l 234 593 l 302 593 b 384 685 355 593 384 633 b 222 729 384 811 234 787 l 48 821 b 580 674 166 1073 590 1003 b 515 494 578 609 556 545 b 515 488 514 493 513 490 b 580 294 560 434 581 363 b 48 161 574 -29 161 -80 z "},"4":{"ha":650,"x_min":0,"x_max":0,"o":"m 609 511 l 403 511 b 398 506 400 511 398 508 l 398 414 l 301 414 l 583 975 b 581 982 584 977 583 981 b 344 982 578 983 367 982 b 339 979 342 982 340 981 l 37 373 b 36 370 36 372 36 371 l 36 202 b 41 197 36 200 38 197 l 398 197 l 398 5 b 403 0 398 2 400 0 l 609 0 b 614 5 612 0 614 2 l 614 506 b 609 511 614 508 612 511 z m 408 10 l 408 202 b 403 207 408 205 406 207 l 46 207 l 46 369 l 347 972 l 570 972 l 288 411 b 293 403 286 408 289 403 l 403 403 b 408 408 406 403 408 406 l 408 500 l 604 500 l 604 10 z "},"5":{"ha":651,"x_min":0,"x_max":0,"o":"m 263 737 l 263 766 l 566 766 b 572 771 569 766 572 768 l 572 977 b 566 982 572 980 569 982 l 51 982 b 46 977 49 982 46 980 l 46 537 b 50 532 46 534 48 532 l 256 479 b 263 484 260 478 263 481 b 398 484 263 547 398 537 b 398 260 399 409 399 335 b 262 260 398 214 276 190 l 249 330 b 243 334 248 332 245 334 l 40 299 b 36 294 38 299 36 296 b 329 0 63 121 135 0 b 614 260 476 0 614 106 b 614 485 614 335 614 410 b 263 737 614 664 429 775 z m 604 260 b 329 10 604 111 471 10 b 47 290 144 10 73 125 l 240 323 l 252 258 b 408 260 268 176 408 201 b 408 484 409 335 409 409 b 253 491 408 549 261 560 l 56 541 l 56 972 l 561 972 l 561 776 l 258 776 b 253 771 255 776 253 774 l 253 730 b 259 725 253 727 256 725 b 604 485 420 766 604 660 b 604 260 604 410 604 335 z "},"6":{"ha":640,"x_min":0,"x_max":0,"o":"m 320 684 b 252 676 297 684 275 681 l 252 722 b 320 766 252 752 296 765 b 386 733 342 765 377 755 b 393 730 387 730 390 729 l 581 814 b 584 820 584 815 585 818 b 320 982 539 923 430 982 b 36 722 174 982 37 876 b 36 260 36 568 36 414 b 320 0 37 106 174 0 b 604 260 467 0 604 106 l 604 424 b 320 684 604 578 467 684 z m 594 260 b 320 10 594 112 461 10 b 46 260 179 10 47 112 b 46 722 46 414 46 568 b 320 972 47 870 179 972 b 572 821 424 972 528 917 l 393 742 b 321 776 380 764 345 775 l 320 776 b 242 722 290 775 242 759 l 242 670 b 242 668 242 669 242 669 b 248 665 243 666 246 664 b 320 674 272 671 296 674 b 594 424 461 674 594 572 b 594 260 594 369 594 315 z m 242 423 b 242 260 242 369 242 315 b 399 260 242 189 398 189 b 399 423 399 315 399 369 b 242 423 398 494 242 494 z m 388 260 b 252 260 388 203 252 203 b 252 423 252 315 252 369 b 388 423 252 481 388 481 b 388 260 389 369 389 315 z "},"7":{"ha":569,"x_min":0,"x_max":0,"o":"m 528 982 l 41 982 b 36 977 38 982 36 980 l 36 771 b 41 766 36 768 38 766 l 295 766 l 106 6 b 111 0 106 3 108 0 l 322 0 b 327 4 324 0 327 2 l 533 834 b 534 835 533 834 534 835 l 534 977 b 528 982 534 980 531 982 z m 523 836 l 318 10 l 118 10 l 307 770 b 302 776 308 773 305 776 l 46 776 l 46 972 l 523 972 z "},"8":{"ha":650,"x_min":0,"x_max":0,"o":"m 548 491 b 613 673 589 543 611 607 b 325 982 618 844 498 982 b 36 673 152 982 31 844 b 101 491 38 607 60 543 b 36 293 57 436 35 364 b 325 0 39 129 157 0 b 613 293 492 0 610 129 b 548 491 614 364 593 436 z m 325 10 b 46 294 162 10 49 134 b 111 488 45 363 67 434 b 111 494 113 490 113 492 b 46 674 70 545 48 609 b 325 972 41 839 157 972 b 603 674 492 972 608 839 b 538 494 601 609 579 545 b 538 488 537 493 536 490 b 603 294 582 434 604 363 b 325 10 600 134 487 10 z m 325 776 b 242 685 270 776 242 736 b 325 593 242 634 270 593 b 407 685 379 593 407 633 b 325 776 407 736 379 776 z m 325 603 b 252 685 276 603 252 639 b 325 766 252 730 276 766 b 397 685 373 766 397 730 b 325 603 397 639 373 603 z m 325 389 b 242 298 270 389 242 349 b 325 206 242 246 270 206 b 407 298 379 206 407 246 b 325 389 407 349 379 389 z m 325 216 b 252 298 276 216 252 252 b 325 379 252 343 276 379 b 397 298 373 379 397 343 b 325 216 397 252 373 216 z "},"9":{"ha":640,"x_min":0,"x_max":0,"o":"m 320 982 b 36 723 173 982 37 876 b 36 558 36 668 36 613 b 320 299 37 404 174 299 b 388 306 343 298 366 301 l 388 260 b 254 249 388 210 275 201 b 248 252 253 252 250 253 l 59 169 b 57 162 57 168 56 165 b 604 260 169 -94 603 -31 b 604 722 604 414 604 568 b 320 982 604 876 467 982 z m 594 260 b 68 161 593 -17 180 -80 l 247 241 b 398 260 279 187 398 201 l 398 313 b 392 318 398 316 395 318 b 320 309 369 312 344 309 b 46 558 179 309 47 410 b 46 723 46 613 46 668 b 320 972 47 870 179 972 b 594 722 461 972 594 870 b 594 260 594 568 594 414 z m 242 722 b 242 559 242 668 242 613 b 398 559 242 488 398 488 b 398 722 399 613 399 668 b 242 722 398 793 242 793 z m 388 559 b 252 559 388 502 252 502 b 252 722 252 613 252 668 b 388 722 252 779 388 779 b 388 559 388 668 388 613 z "},"\u0000":{"ha":0,"x_min":0,"x_max":0,"o":""},"\n":{"ha":0,"x_min":0,"x_max":0,"o":""},"\r":{"ha":0,"x_min":0,"x_max":0,"o":""}," ":{"ha":372,"x_min":0,"x_max":0,"o":""},"!":{"ha":289,"x_min":0,"x_max":0,"o":"m 247 982 l 41 982 b 36 977 38 982 36 980 l 36 314 b 41 309 36 312 38 309 l 247 309 b 252 314 250 309 252 312 l 252 977 b 247 982 252 980 250 982 z m 242 319 l 46 319 l 46 972 l 242 972 z m 247 216 l 41 216 b 36 211 38 216 36 214 l 36 5 b 41 0 36 2 38 0 l 247 0 b 252 5 250 0 252 2 l 252 211 b 247 216 252 214 250 216 z m 242 10 l 46 10 l 46 206 l 242 206 z "},"\"":{"ha":578,"x_min":0,"x_max":0,"o":"m 247 1046 l 41 1046 b 36 1041 38 1046 36 1044 l 36 846 b 40 841 36 844 38 842 l 245 754 b 252 759 249 753 252 755 l 252 1041 b 247 1046 252 1044 250 1046 z m 242 766 l 46 849 l 46 1036 l 242 1036 z m 536 1046 l 330 1046 b 325 1041 327 1046 325 1044 l 325 846 b 328 841 325 844 326 842 l 534 754 b 541 759 538 753 541 755 l 541 1041 b 536 1046 541 1044 539 1046 z m 531 766 l 335 849 l 335 1036 l 531 1036 z "},"“":{"ha":578,"x_min":0,"x_max":0,"o":"m 247 1046 l 41 1046 b 36 1041 38 1046 36 1044 l 36 846 b 40 841 36 844 38 842 l 245 754 b 252 759 249 753 252 755 l 252 1041 b 247 1046 252 1044 250 1046 z m 242 766 l 46 849 l 46 1036 l 242 1036 z m 536 1046 l 330 1046 b 325 1041 327 1046 325 1044 l 325 846 b 328 841 325 844 326 842 l 534 754 b 541 759 538 753 541 755 l 541 1041 b 536 1046 541 1044 539 1046 z m 531 766 l 335 849 l 335 1036 l 531 1036 z "},"”":{"ha":578,"x_min":0,"x_max":0,"o":"m 247 1046 l 41 1046 b 36 1041 38 1046 36 1044 l 36 846 b 40 841 36 844 38 842 l 245 754 b 252 759 249 753 252 755 l 252 1041 b 247 1046 252 1044 250 1046 z m 242 766 l 46 849 l 46 1036 l 242 1036 z m 536 1046 l 330 1046 b 325 1041 327 1046 325 1044 l 325 846 b 328 841 325 844 326 842 l 534 754 b 541 759 538 753 541 755 l 541 1041 b 536 1046 541 1044 539 1046 z m 531 766 l 335 849 l 335 1036 l 531 1036 z "},"#":{"ha":1207,"x_min":0,"x_max":0,"o":"m 1165 702 l 937 702 l 1019 976 b 1014 982 1020 979 1017 982 l 799 982 b 794 978 796 982 794 981 l 711 702 l 638 702 l 721 976 b 716 982 722 979 719 982 l 501 982 b 496 978 498 982 496 981 l 413 702 l 193 702 b 188 698 191 702 189 701 l 133 492 b 138 486 132 489 135 486 l 348 486 l 320 393 l 96 393 b 91 389 94 393 92 391 l 36 183 b 41 177 35 180 38 177 l 255 177 l 204 6 b 208 0 203 3 205 0 l 424 0 b 429 4 426 0 428 2 l 481 177 l 553 177 l 502 6 b 507 0 501 3 503 0 l 722 0 b 727 4 724 0 726 2 l 779 177 l 1013 177 b 1018 181 1016 177 1018 179 l 1073 387 b 1069 393 1074 390 1072 393 l 844 393 l 872 486 l 1110 486 b 1115 490 1113 486 1115 488 l 1170 696 b 1165 702 1171 699 1169 702 z m 1106 496 l 868 496 b 863 493 866 496 864 495 l 832 390 b 837 383 831 387 833 383 l 1062 383 l 1009 187 l 775 187 b 770 183 773 187 771 186 l 718 10 l 513 10 l 564 180 b 560 187 566 183 563 187 l 477 187 b 472 183 475 187 473 186 l 420 10 l 215 10 l 266 180 b 262 187 267 183 265 187 l 48 187 l 100 383 l 324 383 b 328 387 326 383 328 384 l 359 489 b 355 496 360 493 358 496 l 145 496 l 197 692 l 416 692 b 421 696 419 692 421 694 l 504 972 l 709 972 l 627 699 b 632 692 626 696 628 692 l 715 692 b 720 696 717 692 719 694 l 803 972 l 1007 972 l 925 699 b 930 692 924 696 926 692 l 1159 692 z m 653 496 l 570 496 b 565 493 568 496 566 495 l 534 390 b 539 383 533 387 535 383 l 622 383 b 627 387 624 383 626 384 l 657 489 b 653 496 659 493 656 496 z m 618 393 l 546 393 l 573 486 l 646 486 z "},"$":{"ha":668,"x_min":0,"x_max":0,"o":"m 337 603 b 257 717 288 619 237 659 b 422 685 285 801 432 778 b 429 680 421 681 425 678 l 625 769 b 628 775 627 770 629 773 b 442 968 602 868 533 937 l 442 1075 b 437 1080 442 1078 440 1080 l 231 1080 b 226 1075 228 1080 226 1078 l 226 966 b 36 687 108 924 32 812 b 319 386 42 526 173 425 b 412 268 372 372 433 330 b 253 300 383 183 243 209 b 246 305 253 304 249 307 l 49 216 b 47 210 47 215 46 212 b 226 20 72 120 138 52 l 226 -90 b 231 -95 226 -93 228 -95 l 437 -95 b 442 -90 440 -95 442 -93 l 442 17 b 632 297 560 59 636 173 b 337 603 625 479 490 551 z m 436 26 b 432 21 434 25 432 23 l 432 -85 l 236 -85 l 236 23 b 232 28 236 25 235 27 b 58 208 148 58 84 122 l 242 293 b 422 265 241 196 390 171 b 322 396 445 334 381 380 b 46 687 180 434 52 531 b 232 958 42 809 117 918 b 236 963 234 958 236 960 l 236 1070 l 432 1070 l 432 964 b 435 959 432 962 433 960 b 617 777 523 931 590 865 l 432 692 b 247 721 434 791 279 813 b 334 593 226 656 279 612 b 621 296 482 543 616 473 b 436 26 626 175 551 65 z "},"%":{"ha":958,"x_min":0,"x_max":0,"o":"m 216 609 b 395 796 318 609 395 696 b 216 982 395 896 318 982 b 36 796 113 982 36 896 b 216 609 36 695 113 609 z m 216 972 b 385 796 312 972 385 891 b 216 619 385 701 313 619 b 46 796 119 619 46 701 b 216 972 46 890 119 972 z m 216 733 b 277 796 250 733 277 762 b 216 859 277 830 250 859 b 155 796 181 859 155 830 b 216 733 155 762 181 733 z m 216 849 b 266 796 245 849 266 824 b 216 743 266 767 245 743 b 165 796 187 743 165 767 b 216 849 165 824 187 849 z m 743 373 b 563 187 640 373 563 287 b 743 0 563 86 640 0 b 922 187 845 0 922 86 b 743 373 922 287 845 373 z m 743 10 b 573 187 646 10 573 92 b 743 363 573 281 646 363 b 912 187 839 363 912 281 b 743 10 912 92 840 10 z m 743 250 b 682 187 708 250 682 220 b 743 124 682 153 708 124 b 803 187 777 124 803 153 b 743 250 803 220 777 250 z m 743 134 b 692 187 714 134 692 158 b 743 240 692 215 714 240 b 793 187 772 240 793 215 b 743 134 793 158 772 134 z m 917 982 l 672 982 b 668 980 670 982 669 981 l 37 8 b 36 5 37 7 36 6 b 41 0 36 2 38 0 l 287 0 b 291 2 288 0 290 1 b 921 974 501 326 711 650 b 917 982 924 977 921 982 z m 284 10 l 50 10 l 675 972 l 908 972 b 284 10 700 651 492 331 z "},"&":{"ha":650,"x_min":0,"x_max":0,"o":"m 608 304 l 402 304 b 397 299 399 304 397 302 l 397 216 l 325 216 b 252 298 276 216 252 252 b 325 379 252 343 276 379 l 397 379 b 402 384 400 379 402 381 l 402 598 b 397 603 402 601 400 603 l 325 603 b 252 685 276 603 252 639 b 325 766 252 730 276 766 b 397 685 373 766 397 730 b 402 680 397 682 399 680 l 608 680 b 613 685 611 680 613 682 b 325 982 613 850 495 982 b 36 673 152 982 31 844 b 101 491 38 607 60 543 b 36 293 57 436 35 364 b 325 0 39 129 157 0 l 397 0 l 397 -155 b 402 -160 397 -158 399 -160 l 608 -160 b 613 -155 611 -160 613 -158 l 613 299 b 608 304 613 302 611 304 z m 603 -150 l 407 -150 l 407 5 b 402 10 407 8 405 10 l 325 10 b 46 294 162 10 49 134 b 111 488 45 363 67 434 b 111 494 113 490 113 493 b 46 674 70 545 48 609 b 325 972 41 839 157 972 b 603 690 487 972 600 847 l 407 690 b 325 776 405 739 376 776 b 242 685 270 776 242 736 b 325 593 242 634 270 593 l 392 593 l 392 389 l 325 389 b 242 298 270 389 242 349 b 325 206 242 246 270 206 l 402 206 b 407 211 405 206 407 208 l 407 294 l 603 294 z "},"'":{"ha":289,"x_min":0,"x_max":0,"o":"m 247 1046 l 41 1046 b 36 1041 38 1046 36 1044 l 36 846 b 40 841 36 844 38 842 l 245 754 b 252 759 249 753 252 755 l 252 1041 b 247 1046 252 1044 250 1046 z m 242 766 l 46 849 l 46 1036 l 242 1036 z "},"‘":{"ha":289,"x_min":0,"x_max":0,"o":"m 247 1046 l 41 1046 b 36 1041 38 1046 36 1044 l 36 846 b 40 841 36 844 38 842 l 245 754 b 252 759 249 753 252 755 l 252 1041 b 247 1046 252 1044 250 1046 z m 242 766 l 46 849 l 46 1036 l 242 1036 z "},"’":{"ha":289,"x_min":0,"x_max":0,"o":"m 247 1046 l 41 1046 b 36 1041 38 1046 36 1044 l 36 846 b 40 841 36 844 38 842 l 245 754 b 252 759 249 753 252 755 l 252 1041 b 247 1046 252 1044 250 1046 z m 242 766 l 46 849 l 46 1036 l 242 1036 z "},"(":{"ha":396,"x_min":0,"x_max":0,"o":"m 355 776 b 359 781 358 777 359 779 l 359 986 b 354 991 359 989 357 991 b 36 726 198 969 36 922 l 36 257 b 354 -9 36 61 198 13 b 359 -5 356 -9 359 -7 l 359 -4 l 359 201 b 355 206 359 204 357 206 b 252 257 327 212 252 218 l 252 725 b 355 776 252 765 328 771 z m 349 197 l 349 2 b 46 257 200 23 46 70 l 46 726 b 349 980 46 912 200 959 l 349 785 b 242 725 316 779 242 773 l 242 257 b 349 197 242 210 316 204 z "},")":{"ha":396,"x_min":0,"x_max":0,"o":"m 41 991 b 36 986 38 991 36 989 l 36 781 b 40 776 36 779 38 777 b 143 725 68 771 143 765 l 143 257 b 41 206 143 218 68 212 b 36 201 38 206 36 204 l 36 -4 l 36 -5 b 42 -9 37 -7 39 -9 b 359 257 198 13 359 61 l 359 726 b 41 991 359 922 197 969 z m 349 257 b 46 2 349 70 196 23 l 46 197 b 154 257 80 204 154 210 l 154 725 b 46 785 154 773 80 779 l 46 980 b 349 726 196 959 349 912 z "},"*":{"ha":463,"x_min":0,"x_max":0,"o":"m 423 838 l 380 862 l 423 887 b 425 894 426 889 426 892 l 355 1015 b 349 1016 354 1017 351 1018 l 306 992 l 306 1041 b 301 1046 306 1044 303 1046 l 161 1046 b 156 1041 159 1046 156 1044 l 156 991 l 113 1016 b 106 1015 111 1018 108 1017 l 37 894 b 39 887 36 892 36 889 l 82 862 l 39 837 b 37 830 36 836 35 833 l 106 710 b 113 708 108 708 111 707 l 156 733 l 156 683 b 161 678 156 681 159 678 l 301 678 b 306 683 303 678 306 681 l 306 733 l 349 708 b 356 710 351 707 354 708 l 425 831 b 423 838 426 833 425 836 z m 349 720 l 303 746 b 295 742 300 749 295 746 l 295 688 l 166 688 l 166 742 b 159 746 166 746 162 748 l 113 720 l 48 831 l 94 858 b 94 867 98 860 98 865 l 48 893 l 112 1005 l 158 979 b 166 983 162 976 166 979 l 166 1036 l 295 1036 l 295 983 b 303 979 295 979 300 977 l 349 1005 l 414 894 l 367 867 b 367 858 364 865 364 860 l 414 831 z "},"+":{"ha":608,"x_min":0,"x_max":0,"o":"m 567 599 l 412 599 l 412 737 b 407 742 412 739 410 742 l 201 742 b 196 737 198 742 196 739 l 196 599 l 41 599 b 36 594 38 599 36 597 l 36 388 b 41 383 36 385 38 383 l 196 383 l 196 246 b 201 241 196 243 198 241 l 407 241 b 412 246 410 241 412 243 l 412 383 l 567 383 b 572 388 570 383 572 385 l 572 594 b 567 599 572 597 570 599 z m 407 393 b 402 388 405 393 402 391 l 402 251 l 206 251 l 206 388 b 201 393 206 391 204 393 l 46 393 l 46 589 l 201 589 b 206 594 204 589 206 591 l 206 732 l 402 732 l 402 594 b 407 589 402 591 405 589 l 562 589 l 562 393 z "},",":{"ha":289,"x_min":0,"x_max":0,"o":"m 247 220 l 41 220 b 36 215 38 220 36 217 l 36 19 b 40 14 36 17 38 15 l 245 -73 b 252 -68 249 -74 252 -72 l 252 215 b 247 220 252 217 250 220 z m 242 -60 l 46 23 l 46 210 l 242 210 z "},"-":{"ha":608,"x_min":0,"x_max":0,"o":"m 567 599 l 41 599 b 36 594 38 599 36 597 l 36 388 b 41 383 36 385 38 383 l 567 383 b 572 388 570 383 572 385 l 572 594 b 567 599 572 597 570 599 z m 562 393 l 46 393 l 46 589 l 562 589 z "},".":{"ha":289,"x_min":0,"x_max":0,"o":"m 247 220 l 41 220 b 36 215 38 220 36 217 l 36 5 b 41 0 36 2 38 0 l 247 0 b 252 5 250 0 252 2 l 252 215 b 247 220 252 217 250 220 z m 242 10 l 46 10 l 46 210 l 242 210 z "},"/":{"ha":958,"x_min":0,"x_max":0,"o":"m 917 982 l 672 982 b 667 980 670 982 668 981 b 37 8 457 656 247 332 b 41 0 35 5 37 0 l 287 0 b 291 2 288 0 290 1 l 921 974 b 922 977 922 975 922 976 b 917 982 922 980 920 982 z m 284 10 l 50 10 b 674 972 258 331 466 652 l 908 972 z "},":":{"ha":289,"x_min":0,"x_max":0,"o":"m 247 444 l 41 444 b 36 439 38 444 36 442 l 36 229 b 41 224 36 226 38 224 l 247 224 b 252 229 250 224 252 226 l 252 439 b 247 444 252 442 250 444 z m 242 234 l 46 234 l 46 434 l 242 434 z m 247 758 l 41 758 b 36 753 38 758 36 756 l 36 544 b 41 539 36 541 38 539 l 247 539 b 252 544 250 539 252 541 l 252 753 b 247 758 252 756 250 758 z m 242 549 l 46 549 l 46 748 l 242 748 z "},";":{"ha":289,"x_min":0,"x_max":0,"o":"m 247 758 l 41 758 b 36 753 38 758 36 756 l 36 544 b 41 539 36 541 38 539 l 247 539 b 252 544 250 539 252 541 l 252 753 b 247 758 252 756 250 758 z m 242 549 l 46 549 l 46 748 l 242 748 z m 247 444 l 41 444 b 36 439 38 444 36 442 l 36 243 b 40 239 36 241 38 239 l 245 151 b 252 156 249 150 252 153 l 252 439 b 247 444 252 442 250 444 z m 242 164 l 46 247 l 46 434 l 242 434 z "},"<":{"ha":532,"x_min":0,"x_max":0,"o":"m 361 491 l 494 607 b 494 614 496 609 496 612 l 359 769 b 351 770 357 771 354 772 l 38 495 b 38 487 35 493 36 489 l 351 213 b 359 213 354 211 357 211 l 494 368 b 494 375 496 370 496 373 z m 354 224 l 49 491 l 354 759 l 483 611 l 351 495 b 350 487 348 493 348 490 l 483 371 z "},"=":{"ha":608,"x_min":0,"x_max":0,"o":"m 567 742 l 41 742 b 36 737 38 742 36 739 l 36 530 b 41 525 36 528 38 525 l 567 525 b 572 530 570 525 572 528 l 572 737 b 567 742 572 739 570 742 z m 562 536 l 46 536 l 46 732 l 562 732 z m 567 457 l 41 457 b 36 452 38 457 36 455 l 36 246 b 41 241 36 243 38 241 l 567 241 b 572 246 570 241 572 243 l 572 452 b 567 457 572 455 570 457 z m 562 251 l 46 251 l 46 447 l 562 447 z "},">":{"ha":532,"x_min":0,"x_max":0,"o":"m 494 495 l 180 770 b 173 769 178 772 175 771 l 37 614 b 38 607 36 612 36 609 l 170 491 l 38 375 b 37 368 36 373 36 370 l 173 213 b 180 213 175 211 178 211 l 494 487 b 494 495 496 489 496 493 z m 177 224 l 48 371 l 181 487 b 181 495 184 490 183 493 l 48 611 l 177 759 l 483 491 z "},"?":{"ha":626,"x_min":0,"x_max":0,"o":"m 303 979 b 36 726 168 975 37 891 l 36 682 b 41 677 36 680 38 677 l 247 677 b 252 682 250 677 252 680 l 252 725 b 372 725 253 778 371 778 b 299 641 372 687 331 661 b 133 322 175 562 133 466 b 138 317 133 319 135 317 l 344 317 b 349 322 347 317 349 319 b 535 564 349 468 462 467 b 303 979 672 744 543 985 z m 527 570 b 339 327 453 472 342 474 l 143 327 b 305 632 144 465 186 556 b 382 725 337 653 382 682 b 242 725 381 792 243 792 l 242 687 l 46 687 l 46 726 b 302 969 47 884 173 965 b 527 570 534 976 659 744 z m 344 220 l 138 220 b 133 215 135 220 133 217 l 133 5 b 138 0 133 2 135 0 l 344 0 b 349 5 347 0 349 2 l 349 215 b 344 220 349 217 347 220 z m 339 10 l 143 10 l 143 210 l 339 210 z "},"@":{"ha":1097,"x_min":0,"x_max":0,"o":"m 553 954 b 36 438 268 956 36 723 b 456 -68 36 191 214 -24 b 462 -65 459 -69 461 -67 l 535 128 b 530 135 536 132 534 135 b 246 438 373 145 246 280 b 551 742 246 605 385 743 b 852 404 738 741 862 582 b 787 264 850 372 834 257 b 765 425 743 271 761 397 b 796 580 775 492 791 559 b 794 587 797 582 797 585 l 655 696 b 647 693 652 698 648 696 l 633 638 b 528 664 601 655 565 664 b 302 438 402 664 302 562 b 528 213 302 314 403 213 b 602 225 553 213 578 217 b 755 39 606 135 661 52 b 1060 387 942 12 1052 227 b 553 954 1074 687 868 951 z m 1049 387 b 756 49 1042 236 939 23 b 612 232 665 62 613 144 b 605 237 612 236 608 238 b 528 223 580 228 554 223 b 312 438 409 223 312 319 b 528 654 312 556 407 654 b 634 626 565 654 602 645 b 642 629 637 624 641 626 l 655 683 l 786 581 b 755 426 780 558 764 492 b 784 255 750 392 732 264 b 862 404 842 244 860 365 b 551 752 872 587 743 751 b 236 438 379 753 236 610 b 523 126 236 277 363 139 l 454 -58 b 46 438 218 -12 46 197 b 553 944 46 717 274 946 b 1049 387 863 941 1064 682 z m 528 506 b 460 438 491 506 460 476 b 528 371 460 401 491 371 b 595 438 565 371 595 401 b 528 506 595 476 565 506 z m 528 381 b 470 438 496 381 470 407 b 528 496 470 470 496 496 b 585 438 560 496 585 470 b 528 381 585 407 560 381 z "},"A":{"ha":683,"x_min":0,"x_max":0,"o":"m 646 6 l 442 978 b 437 982 441 980 439 982 l 246 982 b 241 978 244 982 242 981 l 36 6 b 36 5 36 6 36 6 b 41 0 36 2 38 0 l 249 0 b 254 4 252 0 254 2 l 268 77 l 415 77 l 428 4 b 433 0 429 2 431 0 l 642 0 l 643 0 b 646 6 645 1 647 3 z m 437 10 l 424 83 b 419 87 423 86 421 87 l 264 87 b 259 83 261 87 259 85 l 245 10 l 47 10 l 250 972 l 432 972 l 635 10 z m 346 492 b 336 492 345 498 337 498 l 298 289 b 303 284 297 286 300 284 l 380 284 b 385 290 383 284 385 287 z m 309 294 l 341 464 l 374 294 z "},"À":{"ha":683,"x_min":0,"x_max":0,"o":"m 646 6 l 442 978 b 437 982 441 980 439 982 l 246 982 b 241 978 244 982 242 981 l 36 6 b 36 5 36 6 36 6 b 41 0 36 2 38 0 l 249 0 b 254 4 252 0 254 2 l 268 77 l 415 77 l 428 4 b 433 0 429 2 431 0 l 642 0 l 643 0 b 646 6 645 1 647 3 z m 437 10 l 424 83 b 419 87 423 86 421 87 l 264 87 b 259 83 261 87 259 85 l 245 10 l 47 10 l 250 972 l 432 972 l 635 10 z m 346 492 b 336 492 345 498 337 498 l 298 289 b 303 284 297 286 300 284 l 380 284 b 385 290 383 284 385 287 z m 309 294 l 341 464 l 374 294 z "},"Á":{"ha":683,"x_min":0,"x_max":0,"o":"m 646 6 l 442 978 b 437 982 441 980 439 982 l 246 982 b 241 978 244 982 242 981 l 36 6 b 36 5 36 6 36 6 b 41 0 36 2 38 0 l 249 0 b 254 4 252 0 254 2 l 268 77 l 415 77 l 428 4 b 433 0 429 2 431 0 l 642 0 l 643 0 b 646 6 645 1 647 3 z m 437 10 l 424 83 b 419 87 423 86 421 87 l 264 87 b 259 83 261 87 259 85 l 245 10 l 47 10 l 250 972 l 432 972 l 635 10 z m 346 492 b 336 492 345 498 337 498 l 298 289 b 303 284 297 286 300 284 l 380 284 b 385 290 383 284 385 287 z m 309 294 l 341 464 l 374 294 z "},"Â":{"ha":683,"x_min":0,"x_max":0,"o":"m 646 6 l 442 978 b 437 982 441 980 439 982 l 246 982 b 241 978 244 982 242 981 l 36 6 b 36 5 36 6 36 6 b 41 0 36 2 38 0 l 249 0 b 254 4 252 0 254 2 l 268 77 l 415 77 l 428 4 b 433 0 429 2 431 0 l 642 0 l 643 0 b 646 6 645 1 647 3 z m 437 10 l 424 83 b 419 87 423 86 421 87 l 264 87 b 259 83 261 87 259 85 l 245 10 l 47 10 l 250 972 l 432 972 l 635 10 z m 346 492 b 336 492 345 498 337 498 l 298 289 b 303 284 297 286 300 284 l 380 284 b 385 290 383 284 385 287 z m 309 294 l 341 464 l 374 294 z "},"Ã":{"ha":683,"x_min":0,"x_max":0,"o":"m 646 6 l 442 978 b 437 982 441 980 439 982 l 246 982 b 241 978 244 982 242 981 l 36 6 b 36 5 36 6 36 6 b 41 0 36 2 38 0 l 249 0 b 254 4 252 0 254 2 l 268 77 l 415 77 l 428 4 b 433 0 429 2 431 0 l 642 0 l 643 0 b 646 6 645 1 647 3 z m 437 10 l 424 83 b 419 87 423 86 421 87 l 264 87 b 259 83 261 87 259 85 l 245 10 l 47 10 l 250 972 l 432 972 l 635 10 z m 346 492 b 336 492 345 498 337 498 l 298 289 b 303 284 297 286 300 284 l 380 284 b 385 290 383 284 385 287 z m 309 294 l 341 464 l 374 294 z "},"Ä":{"ha":683,"x_min":0,"x_max":0,"o":"m 646 6 l 442 978 b 437 982 441 980 439 982 l 246 982 b 241 978 244 982 242 981 l 36 6 b 36 5 36 6 36 6 b 41 0 36 2 38 0 l 249 0 b 254 4 252 0 254 2 l 268 77 l 415 77 l 428 4 b 433 0 429 2 431 0 l 642 0 l 643 0 b 646 6 645 1 647 3 z m 437 10 l 424 83 b 419 87 423 86 421 87 l 264 87 b 259 83 261 87 259 85 l 245 10 l 47 10 l 250 972 l 432 972 l 635 10 z m 346 492 b 336 492 345 498 337 498 l 298 289 b 303 284 297 286 300 284 l 380 284 b 385 290 383 284 385 287 z m 309 294 l 341 464 l 374 294 z "},"Å":{"ha":683,"x_min":0,"x_max":0,"o":"m 646 6 l 442 978 b 437 982 441 980 439 982 l 246 982 b 241 978 244 982 242 981 l 36 6 b 36 5 36 6 36 6 b 41 0 36 2 38 0 l 249 0 b 254 4 252 0 254 2 l 268 77 l 415 77 l 428 4 b 433 0 429 2 431 0 l 642 0 l 643 0 b 646 6 645 1 647 3 z m 437 10 l 424 83 b 419 87 423 86 421 87 l 264 87 b 259 83 261 87 259 85 l 245 10 l 47 10 l 250 972 l 432 972 l 635 10 z m 346 492 b 336 492 345 498 337 498 l 298 289 b 303 284 297 286 300 284 l 380 284 b 385 290 383 284 385 287 z m 309 294 l 341 464 l 374 294 z "},"B":{"ha":663,"x_min":0,"x_max":0,"o":"m 523 535 b 560 685 548 583 560 635 b 267 982 560 852 435 982 l 41 982 b 36 977 38 982 36 980 l 36 5 b 41 0 36 2 38 0 l 331 0 b 626 302 501 0 626 131 b 523 535 626 390 590 477 z m 331 10 l 46 10 l 46 972 l 267 972 b 550 685 430 972 550 847 b 512 537 550 635 538 584 b 513 530 511 535 511 532 b 616 302 580 474 616 389 b 331 10 616 136 495 10 z m 332 398 l 247 398 b 242 393 245 398 242 395 l 242 211 b 247 206 242 208 245 206 l 332 206 b 421 302 387 206 421 246 b 332 398 421 358 387 398 z m 332 216 l 252 216 l 252 388 l 332 388 b 411 302 382 388 411 352 b 332 216 411 252 382 216 z m 247 594 l 267 594 b 267 776 385 594 385 776 l 247 776 b 242 771 245 776 242 774 l 242 599 b 247 594 242 596 245 594 z m 252 766 l 267 766 b 267 604 372 766 372 604 l 252 604 z "},"C":{"ha":650,"x_min":0,"x_max":0,"o":"m 331 766 b 410 691 373 766 408 733 b 417 687 410 688 414 686 l 611 762 b 614 768 613 763 614 766 b 331 982 579 895 462 982 b 36 687 169 982 36 850 l 36 295 b 331 0 36 133 169 0 b 613 214 465 0 579 88 b 610 220 614 216 613 219 l 417 300 b 410 296 414 302 410 299 b 331 216 410 252 375 216 b 252 296 288 216 252 252 l 252 687 b 331 766 252 730 288 766 z m 331 206 b 420 288 377 206 416 242 l 602 212 b 331 10 568 93 457 10 b 46 295 174 10 46 138 l 46 687 b 331 972 46 844 174 972 b 603 770 456 972 568 890 l 420 699 b 331 776 414 743 376 776 b 242 687 282 776 242 736 l 242 296 b 331 206 242 246 282 206 z "},"Ç":{"ha":650,"x_min":0,"x_max":0,"o":"m 331 766 b 410 691 373 766 408 733 b 417 687 410 688 414 686 l 611 762 b 614 768 613 763 614 766 b 331 982 579 895 462 982 b 36 687 169 982 36 850 l 36 295 b 331 0 36 133 169 0 b 613 214 465 0 579 88 b 610 220 614 216 613 219 l 417 300 b 410 296 414 302 410 299 b 331 216 410 252 375 216 b 252 296 288 216 252 252 l 252 687 b 331 766 252 730 288 766 z m 331 206 b 420 288 377 206 416 242 l 602 212 b 331 10 568 93 457 10 b 46 295 174 10 46 138 l 46 687 b 331 972 46 844 174 972 b 603 770 456 972 568 890 l 420 699 b 331 776 414 743 376 776 b 242 687 282 776 242 736 l 242 296 b 331 206 242 246 282 206 z "},"D":{"ha":663,"x_min":0,"x_max":0,"o":"m 331 982 l 41 982 b 36 977 38 982 36 980 l 36 5 b 41 0 36 2 38 0 l 331 0 b 626 302 503 0 626 133 l 626 680 b 331 982 626 849 503 982 z m 616 302 b 331 10 616 138 497 10 l 46 10 l 46 972 l 331 972 b 616 680 497 972 616 844 z m 332 776 l 247 776 b 242 771 245 776 242 774 l 242 211 b 247 206 242 208 245 206 l 332 206 b 421 302 388 206 421 247 l 421 680 b 332 776 421 735 388 776 z m 411 302 b 332 216 411 253 383 216 l 252 216 l 252 766 l 332 766 b 411 680 383 766 411 730 z "},"E":{"ha":663,"x_min":0,"x_max":0,"o":"m 621 766 b 626 771 624 766 626 768 l 626 977 b 621 982 626 980 624 982 l 41 982 b 36 977 38 982 36 980 l 36 5 b 41 0 36 2 38 0 l 621 0 b 626 5 624 0 626 2 l 626 211 b 621 216 626 214 624 216 l 252 216 l 252 383 l 434 383 b 439 388 437 383 439 385 l 439 594 b 434 599 439 597 437 599 l 252 599 l 252 766 z m 247 589 l 429 589 l 429 393 l 247 393 b 242 388 245 393 242 391 l 242 211 b 247 206 242 208 245 206 l 616 206 l 616 10 l 46 10 l 46 972 l 616 972 l 616 776 l 247 776 b 242 771 245 776 242 774 l 242 594 b 247 589 242 591 245 589 z "},"È":{"ha":663,"x_min":0,"x_max":0,"o":"m 621 766 b 626 771 624 766 626 768 l 626 977 b 621 982 626 980 624 982 l 41 982 b 36 977 38 982 36 980 l 36 5 b 41 0 36 2 38 0 l 621 0 b 626 5 624 0 626 2 l 626 211 b 621 216 626 214 624 216 l 252 216 l 252 383 l 434 383 b 439 388 437 383 439 385 l 439 594 b 434 599 439 597 437 599 l 252 599 l 252 766 z m 247 589 l 429 589 l 429 393 l 247 393 b 242 388 245 393 242 391 l 242 211 b 247 206 242 208 245 206 l 616 206 l 616 10 l 46 10 l 46 972 l 616 972 l 616 776 l 247 776 b 242 771 245 776 242 774 l 242 594 b 247 589 242 591 245 589 z "},"É":{"ha":663,"x_min":0,"x_max":0,"o":"m 621 766 b 626 771 624 766 626 768 l 626 977 b 621 982 626 980 624 982 l 41 982 b 36 977 38 982 36 980 l 36 5 b 41 0 36 2 38 0 l 621 0 b 626 5 624 0 626 2 l 626 211 b 621 216 626 214 624 216 l 252 216 l 252 383 l 434 383 b 439 388 437 383 439 385 l 439 594 b 434 599 439 597 437 599 l 252 599 l 252 766 z m 247 589 l 429 589 l 429 393 l 247 393 b 242 388 245 393 242 391 l 242 211 b 247 206 242 208 245 206 l 616 206 l 616 10 l 46 10 l 46 972 l 616 972 l 616 776 l 247 776 b 242 771 245 776 242 774 l 242 594 b 247 589 242 591 245 589 z "},"Ê":{"ha":663,"x_min":0,"x_max":0,"o":"m 621 766 b 626 771 624 766 626 768 l 626 977 b 621 982 626 980 624 982 l 41 982 b 36 977 38 982 36 980 l 36 5 b 41 0 36 2 38 0 l 621 0 b 626 5 624 0 626 2 l 626 211 b 621 216 626 214 624 216 l 252 216 l 252 383 l 434 383 b 439 388 437 383 439 385 l 439 594 b 434 599 439 597 437 599 l 252 599 l 252 766 z m 247 589 l 429 589 l 429 393 l 247 393 b 242 388 245 393 242 391 l 242 211 b 247 206 242 208 245 206 l 616 206 l 616 10 l 46 10 l 46 972 l 616 972 l 616 776 l 247 776 b 242 771 245 776 242 774 l 242 594 b 247 589 242 591 245 589 z "},"Ë":{"ha":663,"x_min":0,"x_max":0,"o":"m 621 766 b 626 771 624 766 626 768 l 626 977 b 621 982 626 980 624 982 l 41 982 b 36 977 38 982 36 980 l 36 5 b 41 0 36 2 38 0 l 621 0 b 626 5 624 0 626 2 l 626 211 b 621 216 626 214 624 216 l 252 216 l 252 383 l 434 383 b 439 388 437 383 439 385 l 439 594 b 434 599 439 597 437 599 l 252 599 l 252 766 z m 247 589 l 429 589 l 429 393 l 247 393 b 242 388 245 393 242 391 l 242 211 b 247 206 242 208 245 206 l 616 206 l 616 10 l 46 10 l 46 972 l 616 972 l 616 776 l 247 776 b 242 771 245 776 242 774 l 242 594 b 247 589 242 591 245 589 z "},"F":{"ha":663,"x_min":0,"x_max":0,"o":"m 621 982 l 41 982 b 36 977 38 982 36 980 l 36 5 b 41 0 36 2 38 0 l 247 0 b 252 5 250 0 252 2 l 252 383 l 434 383 b 439 388 437 383 439 385 l 439 594 b 434 599 439 597 437 599 l 252 599 l 252 766 l 621 766 b 626 771 624 766 626 768 l 626 977 b 621 982 626 980 624 982 z m 616 776 l 247 776 b 242 771 245 776 242 774 l 242 594 b 247 589 242 591 245 589 l 429 589 l 429 393 l 247 393 b 242 388 245 393 242 391 l 242 10 l 46 10 l 46 972 l 616 972 z "},"G":{"ha":663,"x_min":0,"x_max":0,"o":"m 622 599 l 331 599 b 326 594 328 599 326 597 l 326 388 b 331 383 326 385 328 383 l 410 383 l 410 296 b 331 216 410 252 375 216 b 252 296 288 216 252 252 l 252 687 b 331 766 252 730 288 766 b 410 692 370 766 410 731 b 417 687 410 688 414 685 l 611 762 b 614 768 613 763 614 766 b 331 982 579 895 462 982 b 36 687 169 982 36 850 l 36 295 b 331 0 36 133 169 0 b 410 11 358 0 385 4 l 410 5 b 415 0 410 2 413 0 l 622 0 b 627 5 624 0 627 2 l 627 594 b 622 599 627 597 624 599 z m 617 10 l 420 10 l 420 18 b 414 22 420 21 417 23 b 331 10 387 14 359 10 b 46 295 174 10 46 138 l 46 687 b 331 972 46 844 174 972 b 603 770 456 972 568 890 l 420 699 b 331 776 415 742 374 776 b 242 687 282 776 242 736 l 242 296 b 331 206 242 246 282 206 b 420 296 380 206 420 246 l 420 388 b 415 393 420 391 418 393 l 336 393 l 336 589 l 617 589 z "},"H":{"ha":663,"x_min":0,"x_max":0,"o":"m 622 982 l 415 982 b 410 977 413 982 410 980 l 410 599 l 252 599 l 252 977 b 247 982 252 980 250 982 l 41 982 b 36 977 38 982 36 980 l 36 5 b 41 0 36 2 38 0 l 247 0 b 252 5 250 0 252 2 l 252 383 l 410 383 l 410 5 b 415 0 410 2 413 0 l 622 0 b 627 5 624 0 627 2 l 627 977 b 622 982 627 980 624 982 z m 617 10 l 420 10 l 420 388 b 415 393 420 391 418 393 l 247 393 b 242 388 245 393 242 391 l 242 10 l 46 10 l 46 972 l 242 972 l 242 594 b 247 589 242 591 245 589 l 415 589 b 420 594 418 589 420 591 l 420 972 l 617 972 z "},"I":{"ha":289,"x_min":0,"x_max":0,"o":"m 247 982 l 41 982 b 36 977 38 982 36 980 l 36 5 b 41 0 36 2 38 0 l 247 0 b 252 5 250 0 252 2 l 252 977 b 247 982 252 980 250 982 z m 242 10 l 46 10 l 46 972 l 242 972 z "},"Ì":{"ha":289,"x_min":0,"x_max":0,"o":"m 247 982 l 41 982 b 36 977 38 982 36 980 l 36 5 b 41 0 36 2 38 0 l 247 0 b 252 5 250 0 252 2 l 252 977 b 247 982 252 980 250 982 z m 242 10 l 46 10 l 46 972 l 242 972 z "},"Í":{"ha":289,"x_min":0,"x_max":0,"o":"m 247 982 l 41 982 b 36 977 38 982 36 980 l 36 5 b 41 0 36 2 38 0 l 247 0 b 252 5 250 0 252 2 l 252 977 b 247 982 252 980 250 982 z m 242 10 l 46 10 l 46 972 l 242 972 z "},"Î":{"ha":289,"x_min":0,"x_max":0,"o":"m 247 982 l 41 982 b 36 977 38 982 36 980 l 36 5 b 41 0 36 2 38 0 l 247 0 b 252 5 250 0 252 2 l 252 977 b 247 982 252 980 250 982 z m 242 10 l 46 10 l 46 972 l 242 972 z "},"Ï":{"ha":289,"x_min":0,"x_max":0,"o":"m 247 982 l 41 982 b 36 977 38 982 36 980 l 36 5 b 41 0 36 2 38 0 l 247 0 b 252 5 250 0 252 2 l 252 977 b 247 982 252 980 250 982 z m 242 10 l 46 10 l 46 972 l 242 972 z "},"J":{"ha":650,"x_min":0,"x_max":0,"o":"m 609 982 l 342 982 b 337 977 339 982 337 980 l 337 771 b 342 766 337 768 339 766 l 398 766 b 398 296 398 609 398 452 b 319 216 398 252 362 216 b 239 296 275 216 239 252 b 232 300 239 299 235 302 l 39 220 b 36 214 37 219 36 216 b 319 0 72 87 187 0 b 614 295 481 0 614 133 l 614 977 b 609 982 614 980 611 982 z m 603 295 b 319 10 603 138 475 10 b 47 212 193 10 83 92 l 230 288 b 319 206 233 242 272 206 b 408 296 368 206 408 246 b 408 771 408 454 408 613 b 403 776 408 774 405 776 l 347 776 l 347 972 l 603 972 z "},"K":{"ha":735,"x_min":0,"x_max":0,"o":"m 459 491 l 697 975 b 693 982 699 978 697 982 l 487 982 b 482 980 485 982 483 981 l 252 513 l 252 977 b 247 982 252 980 250 982 l 41 982 b 36 977 38 982 36 980 l 36 5 b 41 0 36 2 38 0 l 247 0 b 252 5 250 0 252 2 l 252 469 l 482 3 b 487 0 483 1 485 0 l 693 0 b 697 7 697 0 699 4 z m 490 10 l 263 471 b 242 468 254 489 242 484 l 242 10 l 46 10 l 46 972 l 242 972 l 242 514 b 263 511 242 498 254 493 l 490 972 l 685 972 l 449 493 b 449 489 448 492 448 490 l 685 10 z "},"L":{"ha":539,"x_min":0,"x_max":0,"o":"m 498 216 l 252 216 l 252 977 b 247 982 252 980 250 982 l 41 982 b 36 977 38 982 36 980 l 36 5 b 41 0 36 2 38 0 l 498 0 b 503 5 500 0 503 2 l 503 211 b 498 216 503 214 500 216 z m 46 10 l 46 972 l 242 972 l 242 211 b 247 206 242 208 245 206 l 493 206 l 493 10 z "},"M":{"ha":863,"x_min":0,"x_max":0,"o":"m 821 982 l 615 982 b 610 979 613 982 611 981 l 431 532 l 252 979 b 247 982 251 981 249 982 l 41 982 b 36 977 38 982 36 980 l 36 5 b 41 0 36 2 38 0 l 247 0 b 252 5 250 0 252 2 l 252 437 l 427 3 b 436 3 428 -1 434 -1 l 610 437 l 610 5 b 615 0 610 2 612 0 l 821 0 b 826 5 824 0 826 2 l 826 977 b 821 982 826 980 824 982 z m 620 10 l 620 463 b 611 465 620 469 613 470 l 431 19 l 252 465 b 242 463 250 470 242 469 l 242 10 l 46 10 l 46 972 l 244 972 l 427 517 b 436 517 428 513 434 513 l 619 972 l 816 972 l 816 10 z "},"N":{"ha":663,"x_min":0,"x_max":0,"o":"m 622 982 l 415 982 b 410 977 413 982 410 980 l 410 576 l 213 979 b 209 982 212 981 210 982 l 41 982 b 36 977 38 982 36 980 l 36 5 b 41 0 36 2 38 0 l 247 0 b 252 5 250 0 252 2 l 252 407 l 450 3 b 454 0 450 1 452 0 l 622 0 b 627 5 624 0 627 2 l 627 977 b 622 982 627 980 624 982 z m 617 10 l 457 10 l 252 430 b 242 428 250 435 242 434 l 242 10 l 46 10 l 46 972 l 205 972 l 411 552 b 420 554 413 547 420 549 l 420 972 l 617 972 z "},"Ñ":{"ha":663,"x_min":0,"x_max":0,"o":"m 622 982 l 415 982 b 410 977 413 982 410 980 l 410 576 l 213 979 b 209 982 212 981 210 982 l 41 982 b 36 977 38 982 36 980 l 36 5 b 41 0 36 2 38 0 l 247 0 b 252 5 250 0 252 2 l 252 407 l 450 3 b 454 0 450 1 452 0 l 622 0 b 627 5 624 0 627 2 l 627 977 b 622 982 627 980 624 982 z m 617 10 l 457 10 l 252 430 b 242 428 250 435 242 434 l 242 10 l 46 10 l 46 972 l 205 972 l 411 552 b 420 554 413 547 420 549 l 420 972 l 617 972 z "},"O":{"ha":663,"x_min":0,"x_max":0,"o":"m 331 982 b 36 687 169 982 36 850 l 36 295 b 331 0 36 133 169 0 b 626 295 493 0 626 133 l 626 687 b 331 982 626 850 493 982 z m 616 295 b 331 10 616 138 488 10 b 46 295 174 10 46 138 l 46 687 b 331 972 46 844 174 972 b 616 687 488 972 616 844 z m 331 776 b 242 687 282 776 242 736 l 242 296 b 331 206 242 246 282 206 b 420 296 380 206 420 246 l 420 687 b 331 776 420 736 380 776 z m 410 296 b 331 216 410 252 375 216 b 252 296 288 216 252 252 l 252 687 b 331 766 252 730 288 766 b 410 687 375 766 410 730 z "},"Ò":{"ha":663,"x_min":0,"x_max":0,"o":"m 331 982 b 36 687 169 982 36 850 l 36 295 b 331 0 36 133 169 0 b 626 295 493 0 626 133 l 626 687 b 331 982 626 850 493 982 z m 616 295 b 331 10 616 138 488 10 b 46 295 174 10 46 138 l 46 687 b 331 972 46 844 174 972 b 616 687 488 972 616 844 z m 331 776 b 242 687 282 776 242 736 l 242 296 b 331 206 242 246 282 206 b 420 296 380 206 420 246 l 420 687 b 331 776 420 736 380 776 z m 410 296 b 331 216 410 252 375 216 b 252 296 288 216 252 252 l 252 687 b 331 766 252 730 288 766 b 410 687 375 766 410 730 z "},"Ó":{"ha":663,"x_min":0,"x_max":0,"o":"m 331 982 b 36 687 169 982 36 850 l 36 295 b 331 0 36 133 169 0 b 626 295 493 0 626 133 l 626 687 b 331 982 626 850 493 982 z m 616 295 b 331 10 616 138 488 10 b 46 295 174 10 46 138 l 46 687 b 331 972 46 844 174 972 b 616 687 488 972 616 844 z m 331 776 b 242 687 282 776 242 736 l 242 296 b 331 206 242 246 282 206 b 420 296 380 206 420 246 l 420 687 b 331 776 420 736 380 776 z m 410 296 b 331 216 410 252 375 216 b 252 296 288 216 252 252 l 252 687 b 331 766 252 730 288 766 b 410 687 375 766 410 730 z "},"Ô":{"ha":663,"x_min":0,"x_max":0,"o":"m 331 982 b 36 687 169 982 36 850 l 36 295 b 331 0 36 133 169 0 b 626 295 493 0 626 133 l 626 687 b 331 982 626 850 493 982 z m 616 295 b 331 10 616 138 488 10 b 46 295 174 10 46 138 l 46 687 b 331 972 46 844 174 972 b 616 687 488 972 616 844 z m 331 776 b 242 687 282 776 242 736 l 242 296 b 331 206 242 246 282 206 b 420 296 380 206 420 246 l 420 687 b 331 776 420 736 380 776 z m 410 296 b 331 216 410 252 375 216 b 252 296 288 216 252 252 l 252 687 b 331 766 252 730 288 766 b 410 687 375 766 410 730 z "},"Õ":{"ha":663,"x_min":0,"x_max":0,"o":"m 331 982 b 36 687 169 982 36 850 l 36 295 b 331 0 36 133 169 0 b 626 295 493 0 626 133 l 626 687 b 331 982 626 850 493 982 z m 616 295 b 331 10 616 138 488 10 b 46 295 174 10 46 138 l 46 687 b 331 972 46 844 174 972 b 616 687 488 972 616 844 z m 331 776 b 242 687 282 776 242 736 l 242 296 b 331 206 242 246 282 206 b 420 296 380 206 420 246 l 420 687 b 331 776 420 736 380 776 z m 410 296 b 331 216 410 252 375 216 b 252 296 288 216 252 252 l 252 687 b 331 766 252 730 288 766 b 410 687 375 766 410 730 z "},"Ö":{"ha":663,"x_min":0,"x_max":0,"o":"m 331 982 b 36 687 169 982 36 850 l 36 295 b 331 0 36 133 169 0 b 626 295 493 0 626 133 l 626 687 b 331 982 626 850 493 982 z m 616 295 b 331 10 616 138 488 10 b 46 295 174 10 46 138 l 46 687 b 331 972 46 844 174 972 b 616 687 488 972 616 844 z m 331 776 b 242 687 282 776 242 736 l 242 296 b 331 206 242 246 282 206 b 420 296 380 206 420 246 l 420 687 b 331 776 420 736 380 776 z m 410 296 b 331 216 410 252 375 216 b 252 296 288 216 252 252 l 252 687 b 331 766 252 730 288 766 b 410 687 375 766 410 730 z "},"Ø":{"ha":663,"x_min":0,"x_max":0,"o":"m 331 982 b 36 687 169 982 36 850 l 36 295 b 331 0 36 133 169 0 b 626 295 493 0 626 133 l 626 687 b 331 982 626 850 493 982 z m 616 295 b 331 10 616 138 488 10 b 46 295 174 10 46 138 l 46 687 b 331 972 46 844 174 972 b 616 687 488 972 616 844 z m 331 776 b 242 687 282 776 242 736 l 242 296 b 331 206 242 246 282 206 b 420 296 380 206 420 246 l 420 687 b 331 776 420 736 380 776 z m 410 296 b 331 216 410 252 375 216 b 252 296 288 216 252 252 l 252 687 b 331 766 252 730 288 766 b 410 687 375 766 410 730 z "},"P":{"ha":665,"x_min":0,"x_max":0,"o":"m 331 982 l 41 982 b 36 977 38 982 36 980 l 36 5 b 41 0 36 2 38 0 l 247 0 b 252 5 250 0 252 2 l 252 332 l 331 332 b 331 982 727 332 728 982 z m 331 342 l 247 342 b 242 337 245 342 242 340 l 242 10 l 46 10 l 46 972 l 331 972 b 331 342 714 972 713 342 z m 331 776 l 247 776 b 242 771 245 776 242 774 l 242 543 b 247 538 242 540 245 538 l 331 538 b 331 776 454 538 454 776 z m 331 548 l 252 548 l 252 766 l 331 766 b 331 548 441 766 441 548 z "},"Q":{"ha":663,"x_min":0,"x_max":0,"o":"m 626 687 b 331 982 626 850 493 982 b 36 687 169 982 36 850 l 36 295 b 325 0 36 135 165 3 l 492 -128 b 499 -127 495 -130 498 -130 l 625 36 b 624 43 627 38 626 42 l 551 99 b 626 295 600 153 626 223 l 626 687 z m 616 295 b 540 102 616 223 589 155 b 541 95 538 100 538 97 l 614 38 l 495 -117 l 330 9 b 327 10 329 10 328 10 b 46 295 172 12 46 140 l 46 687 b 331 972 46 844 174 972 b 616 687 488 972 616 844 l 616 295 z m 331 776 b 242 687 282 776 242 736 l 242 296 b 331 206 242 246 282 206 b 420 296 380 206 420 246 l 420 687 b 331 776 420 736 380 776 z m 410 296 b 331 216 410 252 375 216 b 252 296 288 216 252 252 l 252 687 b 331 766 252 730 288 766 b 410 687 375 766 410 730 z "},"R":{"ha":665,"x_min":0,"x_max":0,"o":"m 466 364 b 331 982 730 500 664 982 l 41 982 b 36 977 38 982 36 980 l 36 5 b 41 0 36 2 38 0 l 247 0 b 252 5 250 0 252 2 l 252 312 l 381 3 b 386 0 382 1 384 0 l 624 0 b 628 7 627 0 630 4 z m 389 10 l 252 339 b 242 337 250 344 242 343 l 242 10 l 46 10 l 46 972 l 331 972 b 458 371 656 972 717 499 b 455 364 455 369 454 366 l 616 10 l 389 10 z m 331 776 l 247 776 b 242 771 245 776 242 774 l 242 543 b 247 538 242 540 245 538 l 331 538 b 331 776 454 538 454 776 z m 331 548 l 252 548 l 252 766 l 331 766 b 331 548 441 766 441 548 z "},"S":{"ha":669,"x_min":0,"x_max":0,"o":"m 350 599 b 255 712 300 612 239 652 b 422 685 280 802 432 780 b 426 679 422 682 424 680 b 429 680 427 679 428 679 l 625 769 b 628 775 628 770 629 773 b 39 733 543 1073 78 1047 b 319 386 16 553 156 430 b 414 274 369 373 430 334 b 253 300 387 179 243 210 b 246 305 253 304 249 307 l 50 216 b 47 210 47 215 46 212 b 630 252 131 -84 590 -66 b 350 599 652 432 514 555 z m 620 253 b 58 208 581 -52 142 -71 l 243 293 b 424 271 241 197 393 167 b 322 396 441 338 378 381 b 49 732 163 438 26 556 b 617 777 86 1033 532 1060 l 433 692 b 246 714 434 793 272 813 b 347 589 228 648 291 604 b 620 253 506 547 642 428 z "},"T":{"ha":663,"x_min":0,"x_max":0,"o":"m 622 982 l 41 982 b 36 977 38 982 36 980 l 36 771 b 41 766 36 768 38 766 l 223 766 l 223 5 b 228 0 223 2 226 0 l 434 0 b 440 5 437 0 440 2 l 440 766 l 622 766 b 627 771 624 766 627 768 l 627 977 b 622 982 627 980 624 982 z m 617 776 l 434 776 b 429 771 432 776 429 774 l 429 10 l 233 10 l 233 771 b 228 776 233 774 231 776 l 46 776 l 46 972 l 617 972 z "},"U":{"ha":663,"x_min":0,"x_max":0,"o":"m 621 982 l 415 982 b 410 977 413 982 410 980 l 410 296 b 252 296 410 191 252 191 l 252 977 b 247 982 252 980 250 982 l 41 982 b 36 977 38 982 36 980 l 36 295 b 626 295 36 -93 626 -93 l 626 977 b 621 982 626 980 624 982 z m 616 295 b 46 295 616 -79 46 -79 l 46 972 l 242 972 l 242 296 b 420 296 242 178 420 178 l 420 972 l 616 972 l 616 295 z "},"Ù":{"ha":663,"x_min":0,"x_max":0,"o":"m 621 982 l 415 982 b 410 977 413 982 410 980 l 410 296 b 252 296 410 191 252 191 l 252 977 b 247 982 252 980 250 982 l 41 982 b 36 977 38 982 36 980 l 36 295 b 626 295 36 -93 626 -93 l 626 977 b 621 982 626 980 624 982 z m 616 295 b 46 295 616 -79 46 -79 l 46 972 l 242 972 l 242 296 b 420 296 242 178 420 178 l 420 972 l 616 972 l 616 295 z "},"Ú":{"ha":663,"x_min":0,"x_max":0,"o":"m 621 982 l 415 982 b 410 977 413 982 410 980 l 410 296 b 252 296 410 191 252 191 l 252 977 b 247 982 252 980 250 982 l 41 982 b 36 977 38 982 36 980 l 36 295 b 626 295 36 -93 626 -93 l 626 977 b 621 982 626 980 624 982 z m 616 295 b 46 295 616 -79 46 -79 l 46 972 l 242 972 l 242 296 b 420 296 242 178 420 178 l 420 972 l 616 972 l 616 295 z "},"Û":{"ha":663,"x_min":0,"x_max":0,"o":"m 621 982 l 415 982 b 410 977 413 982 410 980 l 410 296 b 252 296 410 191 252 191 l 252 977 b 247 982 252 980 250 982 l 41 982 b 36 977 38 982 36 980 l 36 295 b 626 295 36 -93 626 -93 l 626 977 b 621 982 626 980 624 982 z m 616 295 b 46 295 616 -79 46 -79 l 46 972 l 242 972 l 242 296 b 420 296 242 178 420 178 l 420 972 l 616 972 l 616 295 z "},"Ü":{"ha":663,"x_min":0,"x_max":0,"o":"m 621 982 l 415 982 b 410 977 413 982 410 980 l 410 296 b 252 296 410 191 252 191 l 252 977 b 247 982 252 980 250 982 l 41 982 b 36 977 38 982 36 980 l 36 295 b 626 295 36 -93 626 -93 l 626 977 b 621 982 626 980 624 982 z m 616 295 b 46 295 616 -79 46 -79 l 46 972 l 242 972 l 242 296 b 420 296 242 178 420 178 l 420 972 l 616 972 l 616 295 z "},"V":{"ha":683,"x_min":0,"x_max":0,"o":"m 642 982 l 433 982 b 428 978 431 982 429 980 l 341 566 l 254 978 b 249 982 254 981 252 982 l 41 982 b 36 976 38 982 35 979 l 241 4 b 246 0 242 2 244 0 l 437 0 b 442 4 439 0 441 2 l 646 976 b 642 982 647 980 645 982 z m 432 10 l 250 10 l 47 972 l 245 972 l 336 540 b 346 540 337 535 345 535 l 437 972 l 635 972 z "},"W":{"ha":1056,"x_min":0,"x_max":0,"o":"m 1013 982 l 805 982 b 800 978 803 982 801 980 l 713 566 l 626 978 b 621 982 626 981 624 982 l 433 982 b 428 978 431 982 429 980 l 341 566 l 254 978 b 249 982 254 981 252 982 l 41 982 b 36 977 38 982 36 980 b 36 976 36 977 36 976 l 241 4 b 246 0 242 2 244 0 l 437 0 b 442 4 439 0 441 2 l 527 411 l 613 4 b 618 0 614 2 616 0 l 808 0 b 813 4 811 0 813 2 l 1018 976 b 1013 982 1019 980 1017 982 z m 804 10 l 622 10 l 532 437 b 522 437 531 442 523 442 l 432 10 l 250 10 l 47 972 l 245 972 l 336 540 b 346 540 337 535 345 535 l 437 972 l 617 972 l 708 540 b 718 540 709 535 717 535 l 809 972 l 1007 972 z "},"X":{"ha":788,"x_min":0,"x_max":0,"o":"m 750 7 l 514 491 l 750 975 b 746 982 752 978 749 982 l 516 982 b 512 979 514 982 512 981 l 393 737 l 275 979 b 271 982 274 981 272 982 l 41 982 b 37 975 37 982 35 978 l 273 491 l 37 7 b 41 0 35 4 37 0 l 271 0 b 275 3 273 0 274 1 l 393 245 l 512 3 b 516 0 512 1 514 0 l 746 0 b 750 7 749 0 752 4 z m 519 10 l 398 259 b 389 259 396 262 391 262 l 267 10 l 49 10 l 283 489 b 283 493 284 490 284 492 l 49 972 l 267 972 l 389 724 b 398 724 391 720 396 720 l 519 972 l 737 972 l 504 493 b 504 489 503 492 503 490 l 737 10 z "},"Y":{"ha":788,"x_min":0,"x_max":0,"o":"m 746 982 l 516 982 b 512 979 514 982 512 981 l 393 737 l 275 979 b 271 982 274 981 272 982 l 41 982 b 37 975 37 982 35 978 l 285 466 l 285 5 b 290 0 285 2 287 0 l 496 0 b 502 5 499 0 502 2 l 502 466 l 750 975 b 746 982 752 978 749 982 z m 492 470 b 491 467 492 469 491 468 l 491 10 l 295 10 l 295 467 b 295 470 295 468 295 469 l 49 972 l 267 972 l 389 724 b 391 721 389 723 390 722 b 398 724 394 720 397 721 l 519 972 l 737 972 z "},"Ý":{"ha":788,"x_min":0,"x_max":0,"o":"m 746 982 l 516 982 b 512 979 514 982 512 981 l 393 737 l 275 979 b 271 982 274 981 272 982 l 41 982 b 37 975 37 982 35 978 l 285 466 l 285 5 b 290 0 285 2 287 0 l 496 0 b 502 5 499 0 502 2 l 502 466 l 750 975 b 746 982 752 978 749 982 z m 492 470 b 491 467 492 469 491 468 l 491 10 l 295 10 l 295 467 b 295 470 295 468 295 469 l 49 972 l 267 972 l 389 724 b 391 721 389 723 390 722 b 398 724 394 720 397 721 l 519 972 l 737 972 z "},"Ÿ":{"ha":788,"x_min":0,"x_max":0,"o":"m 746 982 l 516 982 b 512 979 514 982 512 981 l 393 737 l 275 979 b 271 982 274 981 272 982 l 41 982 b 37 975 37 982 35 978 l 285 466 l 285 5 b 290 0 285 2 287 0 l 496 0 b 502 5 499 0 502 2 l 502 466 l 750 975 b 746 982 752 978 749 982 z m 492 470 b 491 467 492 469 491 468 l 491 10 l 295 10 l 295 467 b 295 470 295 468 295 469 l 49 972 l 267 972 l 389 724 b 391 721 389 723 390 722 b 398 724 394 720 397 721 l 519 972 l 737 972 z "},"Z":{"ha":865,"x_min":0,"x_max":0,"o":"m 823 982 l 144 982 b 139 977 141 982 139 980 l 139 771 b 144 766 139 768 141 766 l 462 766 l 37 8 b 41 0 35 4 37 0 l 720 0 b 725 5 723 0 725 2 l 725 211 b 720 216 725 214 723 216 l 402 216 l 828 975 b 823 982 830 978 827 982 z m 389 214 b 393 206 387 211 389 206 l 715 206 l 715 10 l 50 10 l 475 768 b 471 776 477 772 475 776 l 149 776 l 149 972 l 815 972 z "},"[":{"ha":329,"x_min":0,"x_max":0,"o":"m 287 766 b 292 771 290 766 292 768 l 292 977 b 287 982 292 980 290 982 l 41 982 b 36 977 38 982 36 980 l 36 5 b 41 0 36 2 38 0 l 287 0 b 292 5 290 0 292 2 l 292 211 b 287 216 292 214 290 216 l 252 216 l 252 766 z m 247 206 l 282 206 l 282 10 l 46 10 l 46 972 l 282 972 l 282 776 l 247 776 b 242 771 245 776 242 774 l 242 211 b 247 206 242 208 245 206 z "},"\\":{"ha":958,"x_min":0,"x_max":0,"o":"m 921 8 b 291 980 711 332 501 656 b 287 982 290 981 288 982 l 41 982 b 36 977 38 982 36 980 b 37 974 36 976 36 975 l 668 2 b 672 0 669 1 670 0 l 917 0 b 921 8 921 0 924 5 z m 675 10 l 50 972 l 284 972 b 908 10 492 652 700 331 z "},"]":{"ha":329,"x_min":0,"x_max":0,"o":"m 287 982 l 41 982 b 36 977 38 982 36 980 l 36 771 b 41 766 36 768 38 766 l 76 766 l 76 216 l 41 216 b 36 211 38 216 36 214 l 36 5 b 41 0 36 2 38 0 l 287 0 b 292 5 290 0 292 2 l 292 977 b 287 982 292 980 290 982 z m 282 10 l 46 10 l 46 206 l 81 206 b 86 211 84 206 86 208 l 86 771 b 81 776 86 774 84 776 l 46 776 l 46 972 l 282 972 z "},"^":{"ha":422,"x_min":0,"x_max":0,"o":"m 385 783 l 215 1044 b 208 1046 213 1047 210 1047 b 207 1044 207 1045 207 1045 l 37 783 b 38 776 35 780 36 777 l 141 709 b 148 711 143 708 146 708 l 211 808 l 274 711 b 281 709 275 708 279 708 l 383 776 b 385 783 385 777 386 780 z m 280 721 l 215 820 b 214 822 215 821 214 821 b 207 820 211 823 208 822 l 142 721 l 48 781 l 211 1032 l 373 781 z "},"_":{"ha":608,"x_min":0,"x_max":0,"o":"m 567 216 l 41 216 b 36 211 38 216 36 214 l 36 5 b 41 0 36 2 38 0 l 567 0 b 572 5 570 0 572 2 l 572 211 b 567 216 572 214 570 216 z m 562 10 l 46 10 l 46 206 l 562 206 z "},"a":{"ha":683,"x_min":0,"x_max":0,"o":"m 646 6 l 442 978 b 437 982 441 980 439 982 l 246 982 b 241 978 244 982 242 981 l 36 6 b 36 5 36 6 36 6 b 41 0 36 2 38 0 l 249 0 b 254 4 252 0 254 2 l 268 77 l 415 77 l 428 4 b 433 0 429 2 431 0 l 642 0 l 643 0 b 646 6 645 1 647 3 z m 437 10 l 424 83 b 419 87 423 86 421 87 l 264 87 b 259 83 261 87 259 85 l 245 10 l 47 10 l 250 972 l 432 972 l 635 10 z m 346 492 b 336 492 345 498 337 498 l 298 289 b 303 284 297 286 300 284 l 380 284 b 385 290 383 284 385 287 z m 309 294 l 341 464 l 374 294 z "},"à":{"ha":683,"x_min":0,"x_max":0,"o":"m 646 6 l 442 978 b 437 982 441 980 439 982 l 246 982 b 241 978 244 982 242 981 l 36 6 b 36 5 36 6 36 6 b 41 0 36 2 38 0 l 249 0 b 254 4 252 0 254 2 l 268 77 l 415 77 l 428 4 b 433 0 429 2 431 0 l 642 0 l 643 0 b 646 6 645 1 647 3 z m 437 10 l 424 83 b 419 87 423 86 421 87 l 264 87 b 259 83 261 87 259 85 l 245 10 l 47 10 l 250 972 l 432 972 l 635 10 z m 346 492 b 336 492 345 498 337 498 l 298 289 b 303 284 297 286 300 284 l 380 284 b 385 290 383 284 385 287 z m 309 294 l 341 464 l 374 294 z "},"á":{"ha":683,"x_min":0,"x_max":0,"o":"m 646 6 l 442 978 b 437 982 441 980 439 982 l 246 982 b 241 978 244 982 242 981 l 36 6 b 36 5 36 6 36 6 b 41 0 36 2 38 0 l 249 0 b 254 4 252 0 254 2 l 268 77 l 415 77 l 428 4 b 433 0 429 2 431 0 l 642 0 l 643 0 b 646 6 645 1 647 3 z m 437 10 l 424 83 b 419 87 423 86 421 87 l 264 87 b 259 83 261 87 259 85 l 245 10 l 47 10 l 250 972 l 432 972 l 635 10 z m 346 492 b 336 492 345 498 337 498 l 298 289 b 303 284 297 286 300 284 l 380 284 b 385 290 383 284 385 287 z m 309 294 l 341 464 l 374 294 z "},"â":{"ha":683,"x_min":0,"x_max":0,"o":"m 646 6 l 442 978 b 437 982 441 980 439 982 l 246 982 b 241 978 244 982 242 981 l 36 6 b 36 5 36 6 36 6 b 41 0 36 2 38 0 l 249 0 b 254 4 252 0 254 2 l 268 77 l 415 77 l 428 4 b 433 0 429 2 431 0 l 642 0 l 643 0 b 646 6 645 1 647 3 z m 437 10 l 424 83 b 419 87 423 86 421 87 l 264 87 b 259 83 261 87 259 85 l 245 10 l 47 10 l 250 972 l 432 972 l 635 10 z m 346 492 b 336 492 345 498 337 498 l 298 289 b 303 284 297 286 300 284 l 380 284 b 385 290 383 284 385 287 z m 309 294 l 341 464 l 374 294 z "},"ã":{"ha":683,"x_min":0,"x_max":0,"o":"m 646 6 l 442 978 b 437 982 441 980 439 982 l 246 982 b 241 978 244 982 242 981 l 36 6 b 36 5 36 6 36 6 b 41 0 36 2 38 0 l 249 0 b 254 4 252 0 254 2 l 268 77 l 415 77 l 428 4 b 433 0 429 2 431 0 l 642 0 l 643 0 b 646 6 645 1 647 3 z m 437 10 l 424 83 b 419 87 423 86 421 87 l 264 87 b 259 83 261 87 259 85 l 245 10 l 47 10 l 250 972 l 432 972 l 635 10 z m 346 492 b 336 492 345 498 337 498 l 298 289 b 303 284 297 286 300 284 l 380 284 b 385 290 383 284 385 287 z m 309 294 l 341 464 l 374 294 z "},"ä":{"ha":683,"x_min":0,"x_max":0,"o":"m 646 6 l 442 978 b 437 982 441 980 439 982 l 246 982 b 241 978 244 982 242 981 l 36 6 b 36 5 36 6 36 6 b 41 0 36 2 38 0 l 249 0 b 254 4 252 0 254 2 l 268 77 l 415 77 l 428 4 b 433 0 429 2 431 0 l 642 0 l 643 0 b 646 6 645 1 647 3 z m 437 10 l 424 83 b 419 87 423 86 421 87 l 264 87 b 259 83 261 87 259 85 l 245 10 l 47 10 l 250 972 l 432 972 l 635 10 z m 346 492 b 336 492 345 498 337 498 l 298 289 b 303 284 297 286 300 284 l 380 284 b 385 290 383 284 385 287 z m 309 294 l 341 464 l 374 294 z "},"å":{"ha":683,"x_min":0,"x_max":0,"o":"m 646 6 l 442 978 b 437 982 441 980 439 982 l 246 982 b 241 978 244 982 242 981 l 36 6 b 36 5 36 6 36 6 b 41 0 36 2 38 0 l 249 0 b 254 4 252 0 254 2 l 268 77 l 415 77 l 428 4 b 433 0 429 2 431 0 l 642 0 l 643 0 b 646 6 645 1 647 3 z m 437 10 l 424 83 b 419 87 423 86 421 87 l 264 87 b 259 83 261 87 259 85 l 245 10 l 47 10 l 250 972 l 432 972 l 635 10 z m 346 492 b 336 492 345 498 337 498 l 298 289 b 303 284 297 286 300 284 l 380 284 b 385 290 383 284 385 287 z m 309 294 l 341 464 l 374 294 z "},"b":{"ha":663,"x_min":0,"x_max":0,"o":"m 523 535 b 560 685 548 583 560 635 b 267 982 560 852 435 982 l 41 982 b 36 977 38 982 36 980 l 36 5 b 41 0 36 2 38 0 l 331 0 b 626 302 501 0 626 131 b 523 535 626 390 590 477 z m 331 10 l 46 10 l 46 972 l 267 972 b 550 685 430 972 550 847 b 512 537 550 635 538 584 b 513 530 511 535 511 532 b 616 302 580 474 616 389 b 331 10 616 136 495 10 z m 332 398 l 247 398 b 242 393 245 398 242 395 l 242 211 b 247 206 242 208 245 206 l 332 206 b 421 302 387 206 421 246 b 332 398 421 358 387 398 z m 332 216 l 252 216 l 252 388 l 332 388 b 411 302 382 388 411 352 b 332 216 411 252 382 216 z m 247 594 l 267 594 b 267 776 385 594 385 776 l 247 776 b 242 771 245 776 242 774 l 242 599 b 247 594 242 596 245 594 z m 252 766 l 267 766 b 267 604 372 766 372 604 l 252 604 z "},"c":{"ha":650,"x_min":0,"x_max":0,"o":"m 331 766 b 410 691 373 766 408 733 b 417 687 410 688 414 686 l 611 762 b 614 768 613 763 614 766 b 331 982 579 895 462 982 b 36 687 169 982 36 850 l 36 295 b 331 0 36 133 169 0 b 613 214 465 0 579 88 b 610 220 614 216 613 219 l 417 300 b 410 296 414 302 410 299 b 331 216 410 252 375 216 b 252 296 288 216 252 252 l 252 687 b 331 766 252 730 288 766 z m 331 206 b 420 288 377 206 416 242 l 602 212 b 331 10 568 93 457 10 b 46 295 174 10 46 138 l 46 687 b 331 972 46 844 174 972 b 603 770 456 972 568 890 l 420 699 b 331 776 414 743 376 776 b 242 687 282 776 242 736 l 242 296 b 331 206 242 246 282 206 z "},"ç":{"ha":650,"x_min":0,"x_max":0,"o":"m 331 766 b 410 691 373 766 408 733 b 417 687 410 688 414 686 l 611 762 b 614 768 613 763 614 766 b 331 982 579 895 462 982 b 36 687 169 982 36 850 l 36 295 b 331 0 36 133 169 0 b 613 214 465 0 579 88 b 610 220 614 216 613 219 l 417 300 b 410 296 414 302 410 299 b 331 216 410 252 375 216 b 252 296 288 216 252 252 l 252 687 b 331 766 252 730 288 766 z m 331 206 b 420 288 377 206 416 242 l 602 212 b 331 10 568 93 457 10 b 46 295 174 10 46 138 l 46 687 b 331 972 46 844 174 972 b 603 770 456 972 568 890 l 420 699 b 331 776 414 743 376 776 b 242 687 282 776 242 736 l 242 296 b 331 206 242 246 282 206 z "},"d":{"ha":663,"x_min":0,"x_max":0,"o":"m 331 982 l 41 982 b 36 977 38 982 36 980 l 36 5 b 41 0 36 2 38 0 l 331 0 b 626 302 503 0 626 133 l 626 680 b 331 982 626 849 503 982 z m 616 302 b 331 10 616 138 497 10 l 46 10 l 46 972 l 331 972 b 616 680 497 972 616 844 z m 332 776 l 247 776 b 242 771 245 776 242 774 l 242 211 b 247 206 242 208 245 206 l 332 206 b 421 302 388 206 421 247 l 421 680 b 332 776 421 735 388 776 z m 411 302 b 332 216 411 253 383 216 l 252 216 l 252 766 l 332 766 b 411 680 383 766 411 730 z "},"e":{"ha":663,"x_min":0,"x_max":0,"o":"m 621 766 b 626 771 624 766 626 768 l 626 977 b 621 982 626 980 624 982 l 41 982 b 36 977 38 982 36 980 l 36 5 b 41 0 36 2 38 0 l 621 0 b 626 5 624 0 626 2 l 626 211 b 621 216 626 214 624 216 l 252 216 l 252 383 l 434 383 b 439 388 437 383 439 385 l 439 594 b 434 599 439 597 437 599 l 252 599 l 252 766 z m 247 589 l 429 589 l 429 393 l 247 393 b 242 388 245 393 242 391 l 242 211 b 247 206 242 208 245 206 l 616 206 l 616 10 l 46 10 l 46 972 l 616 972 l 616 776 l 247 776 b 242 771 245 776 242 774 l 242 594 b 247 589 242 591 245 589 z "},"è":{"ha":663,"x_min":0,"x_max":0,"o":"m 621 766 b 626 771 624 766 626 768 l 626 977 b 621 982 626 980 624 982 l 41 982 b 36 977 38 982 36 980 l 36 5 b 41 0 36 2 38 0 l 621 0 b 626 5 624 0 626 2 l 626 211 b 621 216 626 214 624 216 l 252 216 l 252 383 l 434 383 b 439 388 437 383 439 385 l 439 594 b 434 599 439 597 437 599 l 252 599 l 252 766 z m 247 589 l 429 589 l 429 393 l 247 393 b 242 388 245 393 242 391 l 242 211 b 247 206 242 208 245 206 l 616 206 l 616 10 l 46 10 l 46 972 l 616 972 l 616 776 l 247 776 b 242 771 245 776 242 774 l 242 594 b 247 589 242 591 245 589 z "},"é":{"ha":663,"x_min":0,"x_max":0,"o":"m 621 766 b 626 771 624 766 626 768 l 626 977 b 621 982 626 980 624 982 l 41 982 b 36 977 38 982 36 980 l 36 5 b 41 0 36 2 38 0 l 621 0 b 626 5 624 0 626 2 l 626 211 b 621 216 626 214 624 216 l 252 216 l 252 383 l 434 383 b 439 388 437 383 439 385 l 439 594 b 434 599 439 597 437 599 l 252 599 l 252 766 z m 247 589 l 429 589 l 429 393 l 247 393 b 242 388 245 393 242 391 l 242 211 b 247 206 242 208 245 206 l 616 206 l 616 10 l 46 10 l 46 972 l 616 972 l 616 776 l 247 776 b 242 771 245 776 242 774 l 242 594 b 247 589 242 591 245 589 z "},"ê":{"ha":663,"x_min":0,"x_max":0,"o":"m 621 766 b 626 771 624 766 626 768 l 626 977 b 621 982 626 980 624 982 l 41 982 b 36 977 38 982 36 980 l 36 5 b 41 0 36 2 38 0 l 621 0 b 626 5 624 0 626 2 l 626 211 b 621 216 626 214 624 216 l 252 216 l 252 383 l 434 383 b 439 388 437 383 439 385 l 439 594 b 434 599 439 597 437 599 l 252 599 l 252 766 z m 247 589 l 429 589 l 429 393 l 247 393 b 242 388 245 393 242 391 l 242 211 b 247 206 242 208 245 206 l 616 206 l 616 10 l 46 10 l 46 972 l 616 972 l 616 776 l 247 776 b 242 771 245 776 242 774 l 242 594 b 247 589 242 591 245 589 z "},"ë":{"ha":663,"x_min":0,"x_max":0,"o":"m 621 766 b 626 771 624 766 626 768 l 626 977 b 621 982 626 980 624 982 l 41 982 b 36 977 38 982 36 980 l 36 5 b 41 0 36 2 38 0 l 621 0 b 626 5 624 0 626 2 l 626 211 b 621 216 626 214 624 216 l 252 216 l 252 383 l 434 383 b 439 388 437 383 439 385 l 439 594 b 434 599 439 597 437 599 l 252 599 l 252 766 z m 247 589 l 429 589 l 429 393 l 247 393 b 242 388 245 393 242 391 l 242 211 b 247 206 242 208 245 206 l 616 206 l 616 10 l 46 10 l 46 972 l 616 972 l 616 776 l 247 776 b 242 771 245 776 242 774 l 242 594 b 247 589 242 591 245 589 z "},"f":{"ha":663,"x_min":0,"x_max":0,"o":"m 621 982 l 41 982 b 36 977 38 982 36 980 l 36 5 b 41 0 36 2 38 0 l 247 0 b 252 5 250 0 252 2 l 252 383 l 434 383 b 439 388 437 383 439 385 l 439 594 b 434 599 439 597 437 599 l 252 599 l 252 766 l 621 766 b 626 771 624 766 626 768 l 626 977 b 621 982 626 980 624 982 z m 616 776 l 247 776 b 242 771 245 776 242 774 l 242 594 b 247 589 242 591 245 589 l 429 589 l 429 393 l 247 393 b 242 388 245 393 242 391 l 242 10 l 46 10 l 46 972 l 616 972 z "},"g":{"ha":663,"x_min":0,"x_max":0,"o":"m 622 599 l 331 599 b 326 594 328 599 326 597 l 326 388 b 331 383 326 385 328 383 l 410 383 l 410 296 b 331 216 410 252 375 216 b 252 296 288 216 252 252 l 252 687 b 331 766 252 730 288 766 b 410 692 370 766 410 731 b 417 687 410 688 414 685 l 611 762 b 614 768 613 763 614 766 b 331 982 579 895 462 982 b 36 687 169 982 36 850 l 36 295 b 331 0 36 133 169 0 b 410 11 358 0 385 4 l 410 5 b 415 0 410 2 413 0 l 622 0 b 627 5 624 0 627 2 l 627 594 b 622 599 627 597 624 599 z m 617 10 l 420 10 l 420 18 b 414 22 420 21 417 23 b 331 10 387 14 359 10 b 46 295 174 10 46 138 l 46 687 b 331 972 46 844 174 972 b 603 770 456 972 568 890 l 420 699 b 331 776 415 742 374 776 b 242 687 282 776 242 736 l 242 296 b 331 206 242 246 282 206 b 420 296 380 206 420 246 l 420 388 b 415 393 420 391 418 393 l 336 393 l 336 589 l 617 589 z "},"h":{"ha":663,"x_min":0,"x_max":0,"o":"m 622 982 l 415 982 b 410 977 413 982 410 980 l 410 599 l 252 599 l 252 977 b 247 982 252 980 250 982 l 41 982 b 36 977 38 982 36 980 l 36 5 b 41 0 36 2 38 0 l 247 0 b 252 5 250 0 252 2 l 252 383 l 410 383 l 410 5 b 415 0 410 2 413 0 l 622 0 b 627 5 624 0 627 2 l 627 977 b 622 982 627 980 624 982 z m 617 10 l 420 10 l 420 388 b 415 393 420 391 418 393 l 247 393 b 242 388 245 393 242 391 l 242 10 l 46 10 l 46 972 l 242 972 l 242 594 b 247 589 242 591 245 589 l 415 589 b 420 594 418 589 420 591 l 420 972 l 617 972 z "},"i":{"ha":289,"x_min":0,"x_max":0,"o":"m 247 982 l 41 982 b 36 977 38 982 36 980 l 36 5 b 41 0 36 2 38 0 l 247 0 b 252 5 250 0 252 2 l 252 977 b 247 982 252 980 250 982 z m 242 10 l 46 10 l 46 972 l 242 972 z "},"ì":{"ha":289,"x_min":0,"x_max":0,"o":"m 247 982 l 41 982 b 36 977 38 982 36 980 l 36 5 b 41 0 36 2 38 0 l 247 0 b 252 5 250 0 252 2 l 252 977 b 247 982 252 980 250 982 z m 242 10 l 46 10 l 46 972 l 242 972 z "},"í":{"ha":289,"x_min":0,"x_max":0,"o":"m 247 982 l 41 982 b 36 977 38 982 36 980 l 36 5 b 41 0 36 2 38 0 l 247 0 b 252 5 250 0 252 2 l 252 977 b 247 982 252 980 250 982 z m 242 10 l 46 10 l 46 972 l 242 972 z "},"î":{"ha":289,"x_min":0,"x_max":0,"o":"m 247 982 l 41 982 b 36 977 38 982 36 980 l 36 5 b 41 0 36 2 38 0 l 247 0 b 252 5 250 0 252 2 l 252 977 b 247 982 252 980 250 982 z m 242 10 l 46 10 l 46 972 l 242 972 z "},"ï":{"ha":289,"x_min":0,"x_max":0,"o":"m 247 982 l 41 982 b 36 977 38 982 36 980 l 36 5 b 41 0 36 2 38 0 l 247 0 b 252 5 250 0 252 2 l 252 977 b 247 982 252 980 250 982 z m 242 10 l 46 10 l 46 972 l 242 972 z "},"j":{"ha":650,"x_min":0,"x_max":0,"o":"m 609 982 l 342 982 b 337 977 339 982 337 980 l 337 771 b 342 766 337 768 339 766 l 398 766 b 398 296 398 609 398 452 b 319 216 398 252 362 216 b 239 296 275 216 239 252 b 232 300 239 299 235 302 l 39 220 b 36 214 37 219 36 216 b 319 0 72 87 187 0 b 614 295 481 0 614 133 l 614 977 b 609 982 614 980 611 982 z m 603 295 b 319 10 603 138 475 10 b 47 212 193 10 83 92 l 230 288 b 319 206 233 242 272 206 b 408 296 368 206 408 246 b 408 771 408 454 408 613 b 403 776 408 774 405 776 l 347 776 l 347 972 l 603 972 z "},"k":{"ha":735,"x_min":0,"x_max":0,"o":"m 459 491 l 697 975 b 693 982 699 978 697 982 l 487 982 b 482 980 485 982 483 981 l 252 513 l 252 977 b 247 982 252 980 250 982 l 41 982 b 36 977 38 982 36 980 l 36 5 b 41 0 36 2 38 0 l 247 0 b 252 5 250 0 252 2 l 252 469 l 482 3 b 487 0 483 1 485 0 l 693 0 b 697 7 697 0 699 4 z m 490 10 l 263 471 b 242 468 254 489 242 484 l 242 10 l 46 10 l 46 972 l 242 972 l 242 514 b 263 511 242 498 254 493 l 490 972 l 685 972 l 449 493 b 449 489 448 492 448 490 l 685 10 z "},"l":{"ha":539,"x_min":0,"x_max":0,"o":"m 498 216 l 252 216 l 252 977 b 247 982 252 980 250 982 l 41 982 b 36 977 38 982 36 980 l 36 5 b 41 0 36 2 38 0 l 498 0 b 503 5 500 0 503 2 l 503 211 b 498 216 503 214 500 216 z m 46 10 l 46 972 l 242 972 l 242 211 b 247 206 242 208 245 206 l 493 206 l 493 10 z "},"m":{"ha":863,"x_min":0,"x_max":0,"o":"m 821 982 l 615 982 b 610 979 613 982 611 981 l 431 532 l 252 979 b 247 982 251 981 249 982 l 41 982 b 36 977 38 982 36 980 l 36 5 b 41 0 36 2 38 0 l 247 0 b 252 5 250 0 252 2 l 252 437 l 427 3 b 436 3 428 -1 434 -1 l 610 437 l 610 5 b 615 0 610 2 612 0 l 821 0 b 826 5 824 0 826 2 l 826 977 b 821 982 826 980 824 982 z m 620 10 l 620 463 b 611 465 620 469 613 470 l 431 19 l 252 465 b 242 463 250 470 242 469 l 242 10 l 46 10 l 46 972 l 244 972 l 427 517 b 436 517 428 513 434 513 l 619 972 l 816 972 l 816 10 z "},"n":{"ha":663,"x_min":0,"x_max":0,"o":"m 622 982 l 415 982 b 410 977 413 982 410 980 l 410 576 l 213 979 b 209 982 212 981 210 982 l 41 982 b 36 977 38 982 36 980 l 36 5 b 41 0 36 2 38 0 l 247 0 b 252 5 250 0 252 2 l 252 407 l 450 3 b 454 0 450 1 452 0 l 622 0 b 627 5 624 0 627 2 l 627 977 b 622 982 627 980 624 982 z m 617 10 l 457 10 l 252 430 b 242 428 250 435 242 434 l 242 10 l 46 10 l 46 972 l 205 972 l 411 552 b 420 554 413 547 420 549 l 420 972 l 617 972 z "},"ñ":{"ha":663,"x_min":0,"x_max":0,"o":"m 622 982 l 415 982 b 410 977 413 982 410 980 l 410 576 l 213 979 b 209 982 212 981 210 982 l 41 982 b 36 977 38 982 36 980 l 36 5 b 41 0 36 2 38 0 l 247 0 b 252 5 250 0 252 2 l 252 407 l 450 3 b 454 0 450 1 452 0 l 622 0 b 627 5 624 0 627 2 l 627 977 b 622 982 627 980 624 982 z m 617 10 l 457 10 l 252 430 b 242 428 250 435 242 434 l 242 10 l 46 10 l 46 972 l 205 972 l 411 552 b 420 554 413 547 420 549 l 420 972 l 617 972 z "},"o":{"ha":663,"x_min":0,"x_max":0,"o":"m 331 982 b 36 687 169 982 36 850 l 36 295 b 331 0 36 133 169 0 b 626 295 493 0 626 133 l 626 687 b 331 982 626 850 493 982 z m 616 295 b 331 10 616 138 488 10 b 46 295 174 10 46 138 l 46 687 b 331 972 46 844 174 972 b 616 687 488 972 616 844 z m 331 776 b 242 687 282 776 242 736 l 242 296 b 331 206 242 246 282 206 b 420 296 380 206 420 246 l 420 687 b 331 776 420 736 380 776 z m 410 296 b 331 216 410 252 375 216 b 252 296 288 216 252 252 l 252 687 b 331 766 252 730 288 766 b 410 687 375 766 410 730 z "},"ò":{"ha":663,"x_min":0,"x_max":0,"o":"m 331 982 b 36 687 169 982 36 850 l 36 295 b 331 0 36 133 169 0 b 626 295 493 0 626 133 l 626 687 b 331 982 626 850 493 982 z m 616 295 b 331 10 616 138 488 10 b 46 295 174 10 46 138 l 46 687 b 331 972 46 844 174 972 b 616 687 488 972 616 844 z m 331 776 b 242 687 282 776 242 736 l 242 296 b 331 206 242 246 282 206 b 420 296 380 206 420 246 l 420 687 b 331 776 420 736 380 776 z m 410 296 b 331 216 410 252 375 216 b 252 296 288 216 252 252 l 252 687 b 331 766 252 730 288 766 b 410 687 375 766 410 730 z "},"ó":{"ha":663,"x_min":0,"x_max":0,"o":"m 331 982 b 36 687 169 982 36 850 l 36 295 b 331 0 36 133 169 0 b 626 295 493 0 626 133 l 626 687 b 331 982 626 850 493 982 z m 616 295 b 331 10 616 138 488 10 b 46 295 174 10 46 138 l 46 687 b 331 972 46 844 174 972 b 616 687 488 972 616 844 z m 331 776 b 242 687 282 776 242 736 l 242 296 b 331 206 242 246 282 206 b 420 296 380 206 420 246 l 420 687 b 331 776 420 736 380 776 z m 410 296 b 331 216 410 252 375 216 b 252 296 288 216 252 252 l 252 687 b 331 766 252 730 288 766 b 410 687 375 766 410 730 z "},"ô":{"ha":663,"x_min":0,"x_max":0,"o":"m 331 982 b 36 687 169 982 36 850 l 36 295 b 331 0 36 133 169 0 b 626 295 493 0 626 133 l 626 687 b 331 982 626 850 493 982 z m 616 295 b 331 10 616 138 488 10 b 46 295 174 10 46 138 l 46 687 b 331 972 46 844 174 972 b 616 687 488 972 616 844 z m 331 776 b 242 687 282 776 242 736 l 242 296 b 331 206 242 246 282 206 b 420 296 380 206 420 246 l 420 687 b 331 776 420 736 380 776 z m 410 296 b 331 216 410 252 375 216 b 252 296 288 216 252 252 l 252 687 b 331 766 252 730 288 766 b 410 687 375 766 410 730 z "},"õ":{"ha":663,"x_min":0,"x_max":0,"o":"m 331 982 b 36 687 169 982 36 850 l 36 295 b 331 0 36 133 169 0 b 626 295 493 0 626 133 l 626 687 b 331 982 626 850 493 982 z m 616 295 b 331 10 616 138 488 10 b 46 295 174 10 46 138 l 46 687 b 331 972 46 844 174 972 b 616 687 488 972 616 844 z m 331 776 b 242 687 282 776 242 736 l 242 296 b 331 206 242 246 282 206 b 420 296 380 206 420 246 l 420 687 b 331 776 420 736 380 776 z m 410 296 b 331 216 410 252 375 216 b 252 296 288 216 252 252 l 252 687 b 331 766 252 730 288 766 b 410 687 375 766 410 730 z "},"ö":{"ha":663,"x_min":0,"x_max":0,"o":"m 331 982 b 36 687 169 982 36 850 l 36 295 b 331 0 36 133 169 0 b 626 295 493 0 626 133 l 626 687 b 331 982 626 850 493 982 z m 616 295 b 331 10 616 138 488 10 b 46 295 174 10 46 138 l 46 687 b 331 972 46 844 174 972 b 616 687 488 972 616 844 z m 331 776 b 242 687 282 776 242 736 l 242 296 b 331 206 242 246 282 206 b 420 296 380 206 420 246 l 420 687 b 331 776 420 736 380 776 z m 410 296 b 331 216 410 252 375 216 b 252 296 288 216 252 252 l 252 687 b 331 766 252 730 288 766 b 410 687 375 766 410 730 z "},"ø":{"ha":663,"x_min":0,"x_max":0,"o":"m 331 982 b 36 687 169 982 36 850 l 36 295 b 331 0 36 133 169 0 b 626 295 493 0 626 133 l 626 687 b 331 982 626 850 493 982 z m 616 295 b 331 10 616 138 488 10 b 46 295 174 10 46 138 l 46 687 b 331 972 46 844 174 972 b 616 687 488 972 616 844 z m 331 776 b 242 687 282 776 242 736 l 242 296 b 331 206 242 246 282 206 b 420 296 380 206 420 246 l 420 687 b 331 776 420 736 380 776 z m 410 296 b 331 216 410 252 375 216 b 252 296 288 216 252 252 l 252 687 b 331 766 252 730 288 766 b 410 687 375 766 410 730 z "},"p":{"ha":665,"x_min":0,"x_max":0,"o":"m 331 982 l 41 982 b 36 977 38 982 36 980 l 36 5 b 41 0 36 2 38 0 l 247 0 b 252 5 250 0 252 2 l 252 332 l 331 332 b 331 982 727 332 728 982 z m 331 342 l 247 342 b 242 337 245 342 242 340 l 242 10 l 46 10 l 46 972 l 331 972 b 331 342 714 972 713 342 z m 331 776 l 247 776 b 242 771 245 776 242 774 l 242 543 b 247 538 242 540 245 538 l 331 538 b 331 776 454 538 454 776 z m 331 548 l 252 548 l 252 766 l 331 766 b 331 548 441 766 441 548 z "},"q":{"ha":663,"x_min":0,"x_max":0,"o":"m 626 687 b 331 982 626 850 493 982 b 36 687 169 982 36 850 l 36 295 b 325 0 36 135 165 3 l 492 -128 b 499 -127 495 -130 498 -130 l 625 36 b 624 43 627 38 626 42 l 551 99 b 626 295 600 153 626 223 l 626 687 z m 616 295 b 540 102 616 223 589 155 b 541 95 538 100 538 97 l 614 38 l 495 -117 l 330 9 b 327 10 329 10 328 10 b 46 295 172 12 46 140 l 46 687 b 331 972 46 844 174 972 b 616 687 488 972 616 844 l 616 295 z m 331 776 b 242 687 282 776 242 736 l 242 296 b 331 206 242 246 282 206 b 420 296 380 206 420 246 l 420 687 b 331 776 420 736 380 776 z m 410 296 b 331 216 410 252 375 216 b 252 296 288 216 252 252 l 252 687 b 331 766 252 730 288 766 b 410 687 375 766 410 730 z "},"r":{"ha":665,"x_min":0,"x_max":0,"o":"m 466 364 b 331 982 730 500 664 982 l 41 982 b 36 977 38 982 36 980 l 36 5 b 41 0 36 2 38 0 l 247 0 b 252 5 250 0 252 2 l 252 312 l 381 3 b 386 0 382 1 384 0 l 624 0 b 628 7 627 0 630 4 z m 389 10 l 252 339 b 242 337 250 344 242 343 l 242 10 l 46 10 l 46 972 l 331 972 b 458 371 656 972 717 499 b 455 364 455 369 454 366 l 616 10 l 389 10 z m 331 776 l 247 776 b 242 771 245 776 242 774 l 242 543 b 247 538 242 540 245 538 l 331 538 b 331 776 454 538 454 776 z m 331 548 l 252 548 l 252 766 l 331 766 b 331 548 441 766 441 548 z "},"s":{"ha":669,"x_min":0,"x_max":0,"o":"m 350 599 b 255 712 300 612 239 652 b 422 685 280 802 432 780 b 426 679 422 682 424 680 b 429 680 427 679 428 679 l 625 769 b 628 775 628 770 629 773 b 39 733 543 1073 78 1047 b 319 386 16 553 156 430 b 414 274 369 373 430 334 b 253 300 387 179 243 210 b 246 305 253 304 249 307 l 50 216 b 47 210 47 215 46 212 b 630 252 131 -84 590 -66 b 350 599 652 432 514 555 z m 620 253 b 58 208 581 -52 142 -71 l 243 293 b 424 271 241 197 393 167 b 322 396 441 338 378 381 b 49 732 163 438 26 556 b 617 777 86 1033 532 1060 l 433 692 b 246 714 434 793 272 813 b 347 589 228 648 291 604 b 620 253 506 547 642 428 z "},"t":{"ha":663,"x_min":0,"x_max":0,"o":"m 622 982 l 41 982 b 36 977 38 982 36 980 l 36 771 b 41 766 36 768 38 766 l 223 766 l 223 5 b 228 0 223 2 226 0 l 434 0 b 440 5 437 0 440 2 l 440 766 l 622 766 b 627 771 624 766 627 768 l 627 977 b 622 982 627 980 624 982 z m 617 776 l 434 776 b 429 771 432 776 429 774 l 429 10 l 233 10 l 233 771 b 228 776 233 774 231 776 l 46 776 l 46 972 l 617 972 z "},"u":{"ha":663,"x_min":0,"x_max":0,"o":"m 621 982 l 415 982 b 410 977 413 982 410 980 l 410 296 b 252 296 410 191 252 191 l 252 977 b 247 982 252 980 250 982 l 41 982 b 36 977 38 982 36 980 l 36 295 b 626 295 36 -93 626 -93 l 626 977 b 621 982 626 980 624 982 z m 616 295 b 46 295 616 -79 46 -79 l 46 972 l 242 972 l 242 296 b 420 296 242 178 420 178 l 420 972 l 616 972 l 616 295 z "},"ù":{"ha":663,"x_min":0,"x_max":0,"o":"m 621 982 l 415 982 b 410 977 413 982 410 980 l 410 296 b 252 296 410 191 252 191 l 252 977 b 247 982 252 980 250 982 l 41 982 b 36 977 38 982 36 980 l 36 295 b 626 295 36 -93 626 -93 l 626 977 b 621 982 626 980 624 982 z m 616 295 b 46 295 616 -79 46 -79 l 46 972 l 242 972 l 242 296 b 420 296 242 178 420 178 l 420 972 l 616 972 l 616 295 z "},"ú":{"ha":663,"x_min":0,"x_max":0,"o":"m 621 982 l 415 982 b 410 977 413 982 410 980 l 410 296 b 252 296 410 191 252 191 l 252 977 b 247 982 252 980 250 982 l 41 982 b 36 977 38 982 36 980 l 36 295 b 626 295 36 -93 626 -93 l 626 977 b 621 982 626 980 624 982 z m 616 295 b 46 295 616 -79 46 -79 l 46 972 l 242 972 l 242 296 b 420 296 242 178 420 178 l 420 972 l 616 972 l 616 295 z "},"û":{"ha":663,"x_min":0,"x_max":0,"o":"m 621 982 l 415 982 b 410 977 413 982 410 980 l 410 296 b 252 296 410 191 252 191 l 252 977 b 247 982 252 980 250 982 l 41 982 b 36 977 38 982 36 980 l 36 295 b 626 295 36 -93 626 -93 l 626 977 b 621 982 626 980 624 982 z m 616 295 b 46 295 616 -79 46 -79 l 46 972 l 242 972 l 242 296 b 420 296 242 178 420 178 l 420 972 l 616 972 l 616 295 z "},"ü":{"ha":663,"x_min":0,"x_max":0,"o":"m 621 982 l 415 982 b 410 977 413 982 410 980 l 410 296 b 252 296 410 191 252 191 l 252 977 b 247 982 252 980 250 982 l 41 982 b 36 977 38 982 36 980 l 36 295 b 626 295 36 -93 626 -93 l 626 977 b 621 982 626 980 624 982 z m 616 295 b 46 295 616 -79 46 -79 l 46 972 l 242 972 l 242 296 b 420 296 242 178 420 178 l 420 972 l 616 972 l 616 295 z "},"v":{"ha":683,"x_min":0,"x_max":0,"o":"m 642 982 l 433 982 b 428 978 431 982 429 980 l 341 566 l 254 978 b 249 982 254 981 252 982 l 41 982 b 36 976 38 982 35 979 l 241 4 b 246 0 242 2 244 0 l 437 0 b 442 4 439 0 441 2 l 646 976 b 642 982 647 980 645 982 z m 432 10 l 250 10 l 47 972 l 245 972 l 336 540 b 346 540 337 535 345 535 l 437 972 l 635 972 z "},"w":{"ha":1056,"x_min":0,"x_max":0,"o":"m 1013 982 l 805 982 b 800 978 803 982 801 980 l 713 566 l 626 978 b 621 982 626 981 624 982 l 433 982 b 428 978 431 982 429 980 l 341 566 l 254 978 b 249 982 254 981 252 982 l 41 982 b 36 977 38 982 36 980 b 36 976 36 977 36 976 l 241 4 b 246 0 242 2 244 0 l 437 0 b 442 4 439 0 441 2 l 527 411 l 613 4 b 618 0 614 2 616 0 l 808 0 b 813 4 811 0 813 2 l 1018 976 b 1013 982 1019 980 1017 982 z m 804 10 l 622 10 l 532 437 b 522 437 531 442 523 442 l 432 10 l 250 10 l 47 972 l 245 972 l 336 540 b 346 540 337 535 345 535 l 437 972 l 617 972 l 708 540 b 718 540 709 535 717 535 l 809 972 l 1007 972 z "},"x":{"ha":788,"x_min":0,"x_max":0,"o":"m 750 7 l 514 491 l 750 975 b 746 982 752 978 749 982 l 516 982 b 512 979 514 982 512 981 l 393 737 l 275 979 b 271 982 274 981 272 982 l 41 982 b 37 975 37 982 35 978 l 273 491 l 37 7 b 41 0 35 4 37 0 l 271 0 b 275 3 273 0 274 1 l 393 245 l 512 3 b 516 0 512 1 514 0 l 746 0 b 750 7 749 0 752 4 z m 519 10 l 398 259 b 389 259 396 262 391 262 l 267 10 l 49 10 l 283 489 b 283 493 284 490 284 492 l 49 972 l 267 972 l 389 724 b 398 724 391 720 396 720 l 519 972 l 737 972 l 504 493 b 504 489 503 492 503 490 l 737 10 z "},"y":{"ha":788,"x_min":0,"x_max":0,"o":"m 746 982 l 516 982 b 512 979 514 982 512 981 l 393 737 l 275 979 b 271 982 274 981 272 982 l 41 982 b 37 975 37 982 35 978 l 285 466 l 285 5 b 290 0 285 2 287 0 l 496 0 b 502 5 499 0 502 2 l 502 466 l 750 975 b 746 982 752 978 749 982 z m 492 470 b 491 467 492 469 491 468 l 491 10 l 295 10 l 295 467 b 295 470 295 468 295 469 l 49 972 l 267 972 l 389 724 b 391 721 389 723 390 722 b 398 724 394 720 397 721 l 519 972 l 737 972 z "},"ý":{"ha":788,"x_min":0,"x_max":0,"o":"m 746 982 l 516 982 b 512 979 514 982 512 981 l 393 737 l 275 979 b 271 982 274 981 272 982 l 41 982 b 37 975 37 982 35 978 l 285 466 l 285 5 b 290 0 285 2 287 0 l 496 0 b 502 5 499 0 502 2 l 502 466 l 750 975 b 746 982 752 978 749 982 z m 492 470 b 491 467 492 469 491 468 l 491 10 l 295 10 l 295 467 b 295 470 295 468 295 469 l 49 972 l 267 972 l 389 724 b 391 721 389 723 390 722 b 398 724 394 720 397 721 l 519 972 l 737 972 z "},"ÿ":{"ha":788,"x_min":0,"x_max":0,"o":"m 746 982 l 516 982 b 512 979 514 982 512 981 l 393 737 l 275 979 b 271 982 274 981 272 982 l 41 982 b 37 975 37 982 35 978 l 285 466 l 285 5 b 290 0 285 2 287 0 l 496 0 b 502 5 499 0 502 2 l 502 466 l 750 975 b 746 982 752 978 749 982 z m 492 470 b 491 467 492 469 491 468 l 491 10 l 295 10 l 295 467 b 295 470 295 468 295 469 l 49 972 l 267 972 l 389 724 b 391 721 389 723 390 722 b 398 724 394 720 397 721 l 519 972 l 737 972 z "},"z":{"ha":865,"x_min":0,"x_max":0,"o":"m 823 982 l 144 982 b 139 977 141 982 139 980 l 139 771 b 144 766 139 768 141 766 l 462 766 l 37 8 b 41 0 35 4 37 0 l 720 0 b 725 5 723 0 725 2 l 725 211 b 720 216 725 214 723 216 l 402 216 l 828 975 b 823 982 830 978 827 982 z m 389 214 b 393 206 387 211 389 206 l 715 206 l 715 10 l 50 10 l 475 768 b 471 776 477 772 475 776 l 149 776 l 149 972 l 815 972 z "},"{":{"ha":389,"x_min":0,"x_max":0,"o":"m 348 766 b 353 771 350 766 353 768 l 353 977 b 348 982 353 980 350 982 l 101 982 b 96 977 99 982 96 980 l 96 565 l 41 565 b 36 560 38 565 36 562 l 36 423 b 41 418 36 420 38 418 l 96 418 l 96 5 b 101 0 96 2 99 0 l 348 0 b 353 5 350 0 353 2 l 353 211 b 348 216 353 214 350 216 l 313 216 l 313 766 z m 308 206 l 342 206 l 342 10 l 106 10 l 106 423 b 101 428 106 425 104 428 l 46 428 l 46 555 l 101 555 b 106 560 104 555 106 557 l 106 972 l 342 972 l 342 776 l 308 776 b 302 771 305 776 302 774 l 302 211 b 308 206 302 208 305 206 z "},"|":{"ha":289,"x_min":0,"x_max":0,"o":"m 247 1019 l 41 1019 b 36 1014 38 1019 36 1017 l 36 -31 b 41 -36 36 -34 38 -36 l 247 -36 b 252 -31 250 -36 252 -34 l 252 1014 b 247 1019 252 1017 250 1019 z m 242 -26 l 46 -26 l 46 1009 l 242 1009 z "},"}":{"ha":389,"x_min":0,"x_max":0,"o":"m 348 565 l 292 565 l 292 977 b 287 982 292 980 290 982 l 41 982 b 36 977 38 982 36 980 l 36 771 b 41 766 36 768 38 766 l 76 766 l 76 216 l 41 216 b 36 211 38 216 36 214 l 36 5 b 41 0 36 2 38 0 l 287 0 b 292 5 290 0 292 2 l 292 418 l 348 418 b 353 423 350 418 353 420 l 353 560 b 348 565 353 562 350 565 z m 342 428 l 287 428 b 282 423 285 428 282 425 l 282 10 l 46 10 l 46 206 l 81 206 b 86 211 84 206 86 208 l 86 771 b 81 776 86 774 84 776 l 46 776 l 46 972 l 282 972 l 282 560 b 287 555 282 557 285 555 l 342 555 z "},"~":{"ha":851,"x_min":0,"x_max":0,"o":"m 813 507 b 463 635 711 588 605 677 b 353 572 423 623 387 602 b 182 639 295 520 225 603 b 174 638 179 640 176 640 l 37 483 b 38 476 36 481 36 478 b 388 348 140 394 246 305 b 497 411 428 360 464 381 b 669 344 555 462 623 382 b 676 344 671 342 674 342 l 813 500 b 813 507 815 502 815 505 z m 672 355 b 490 418 622 396 554 475 b 385 357 459 390 423 369 b 48 480 249 316 146 402 l 179 628 b 360 565 228 587 297 508 b 466 625 392 593 428 614 b 802 502 602 666 704 581 z "}," ":{"ha":372,"x_min":0,"x_max":0,"o":""},"­":{"ha":0,"x_min":0,"x_max":0,"o":""}}}
